<svg width="20" height="20" viewBox="0 0 20 20" fill="none" xmlns="http://www.w3.org/2000/svg">
<path fill-rule="evenodd" clip-rule="evenodd" d="M0.507778 4.11556C0 5.34111 0 6.89333 0 10C0 13.1067 0 14.66 0.507778 15.8844C1.1844 17.5179 2.48215 18.8156 4.11556 19.4922C5.34 20 6.89333 20 10 20H13.3333C16.4756 20 18.0478 20 19.0233 19.0233C20 18.0478 20 16.4756 20 13.3333V10C20 6.89333 20 5.34111 19.4922 4.11556C18.8156 2.48215 17.5179 1.1844 15.8844 0.507778C14.6589 4.58497e-08 13.1067 0 10 0C6.89333 0 5.34 4.58497e-08 4.11556 0.507778C2.48215 1.1844 1.1844 2.48215 0.507778 4.11556ZM14.4444 7.77778C14.4444 7.48309 14.3274 7.20048 14.119 6.9921C13.9106 6.78373 13.628 6.66667 13.3333 6.66667H6.66667C6.37198 6.66667 6.08937 6.78373 5.88099 6.9921C5.67262 7.20048 5.55556 7.48309 5.55556 7.77778C5.55556 8.07246 5.67262 8.35508 5.88099 8.56345C6.08937 8.77183 6.37198 8.88889 6.66667 8.88889H13.3333C13.628 8.88889 13.9106 8.77183 14.119 8.56345C14.3274 8.35508 14.4444 8.07246 14.4444 7.77778ZM14.4444 12.2222C14.4444 11.9275 14.3274 11.6449 14.119 11.4365C13.9106 11.2282 13.628 11.1111 13.3333 11.1111H10C9.70531 11.1111 9.4227 11.2282 9.21433 11.4365C9.00595 11.6449 8.88889 11.9275 8.88889 12.2222C8.88889 12.5169 9.00595 12.7995 9.21433 13.0079C9.4227 13.2163 9.70531 13.3333 10 13.3333H13.3333C13.628 13.3333 13.9106 13.2163 14.119 13.0079C14.3274 12.7995 14.4444 12.5169 14.4444 12.2222Z" fill="#2F80ED"/>
</svg>
