<svg width="100%" height="100%" viewBox="0 0 35 35" fill="none" xmlns="http://www.w3.org/2000/svg">
<g clip-path="url(#clip0_384_3169)">
<path fill-rule="evenodd" clip-rule="evenodd" d="M27.0535 1C25.8285 0.999447 24.6252 1.32704 23.5658 1.9495C22.5065 2.57195 21.6289 3.46708 21.0222 4.54392C20.4154 5.62076 20.1012 6.84094 20.1115 8.08045C20.1213 9.26755 20.4284 10.4319 21.003 11.465C21.0512 11.5517 21.0612 11.655 21.0277 11.7485L20.1497 14.1925C20.115 14.289 20.1038 14.3924 20.1171 14.4942C20.1303 14.5959 20.1675 14.693 20.2257 14.7771C20.2838 14.8611 20.3611 14.9298 20.4511 14.9772C20.541 15.0247 20.6409 15.0495 20.7423 15.0496C20.8159 15.0494 20.8889 15.0364 20.9582 15.0112L23.3688 14.124C23.4639 14.089 23.5696 14.0994 23.6577 14.1495C24.5415 14.6518 25.524 14.9526 26.5361 15.0297C27.6014 15.1109 28.6708 14.9422 29.6612 14.5368C30.6515 14.1314 31.536 13.5002 32.2459 12.6923C32.9557 11.8844 33.4717 10.9216 33.7536 9.87895C34.0356 8.83627 34.076 7.7418 33.8716 6.68076C33.6672 5.61971 33.2236 4.62072 32.5752 3.76154C31.9269 2.90236 31.0913 2.20618 30.1336 1.7272C29.1758 1.24822 28.1218 0.999365 27.0535 1ZM26.4324 11.1885C26.3267 11.1885 26.241 11.1028 26.241 10.9971V7.11844C26.241 7.00145 26.137 6.91184 26.0213 6.92918L25.4287 7.01799C25.313 7.03533 25.2089 6.94572 25.2089 6.82873V5.48578C25.2089 5.39085 25.2785 5.31026 25.3724 5.29644L28.0764 4.89843C28.1919 4.88142 28.2956 4.97097 28.2956 5.08776V10.9971C28.2956 11.1028 28.2099 11.1885 28.1043 11.1885H26.4324ZM20.7959 16.5981L20.7934 16.5981C20.4416 16.5978 20.0951 16.5118 19.7832 16.3473C19.4713 16.1828 19.2032 15.9446 19.0016 15.6531C18.8 15.3616 18.6709 15.0252 18.625 14.6725C18.5792 14.32 18.618 13.9615 18.7381 13.6274L18.7383 13.6268L19.4167 11.7381C18.8944 10.6243 18.6165 9.40588 18.6063 8.16694C18.5946 6.75626 18.9302 5.36627 19.5811 4.12181H4.4941C3.11665 4.12181 2 5.23845 2 6.6159V32.5061C2 33.8836 3.11665 35.0002 4.4941 35.0002H28.3533C29.7308 35.0002 30.8474 33.8836 30.8474 32.5061V15.6592C30.6236 15.7755 30.3943 15.8818 30.1602 15.9777C28.9618 16.4682 27.6678 16.6723 26.3788 16.5741C25.3469 16.4954 24.3405 16.2247 23.4095 15.7778L21.54 16.4659L21.537 16.4669C21.3001 16.5531 21.0502 16.5974 20.7984 16.5981L20.7959 16.5981ZM5.09961 10.8543C5.09961 10.3904 5.47565 10.0144 5.93952 10.0144H14.0571C14.5209 10.0144 14.897 10.3904 14.897 10.8543C14.897 11.3181 14.5209 11.6942 14.0571 11.6942H5.93952C5.47565 11.6942 5.09961 11.3181 5.09961 10.8543ZM5.01807 28.9941C5.01807 27.8884 5.9144 26.9921 7.02007 26.9921H25.8256C26.9313 26.9921 27.8276 27.8884 27.8276 28.9941C27.8276 30.0998 26.9313 30.9961 25.8256 30.9961H7.02007C5.9144 30.9961 5.01807 30.0998 5.01807 28.9941ZM5.93952 13.9347C5.47565 13.9347 5.09961 14.3108 5.09961 14.7746C5.09961 15.2385 5.47565 15.6145 5.93952 15.6145H15.6623C16.1261 15.6145 16.5022 15.2385 16.5022 14.7746C16.5022 14.3108 16.1261 13.9347 15.6623 13.9347H5.93952ZM5.09961 18.6936C5.09961 18.2297 5.47565 17.8537 5.93952 17.8537H12.7286C13.1925 17.8537 13.5685 18.2297 13.5685 18.6936C13.5685 19.1575 13.1925 19.5335 12.7286 19.5335H5.93952C5.47565 19.5335 5.09961 19.1575 5.09961 18.6936ZM5.93952 21.7737C5.47565 21.7737 5.09961 22.1497 5.09961 22.6136C5.09961 23.0775 5.47565 23.4535 5.93952 23.4535H18.5406C19.0045 23.4535 19.3805 23.0775 19.3805 22.6136C19.3805 22.1497 19.0045 21.7737 18.5406 21.7737H5.93952Z" fill="white"/>
</g>
<defs>
<clipPath id="clip0_384_3169">
<rect width="35" height="35" fill="white"/>
</clipPath>
</defs>
</svg>
