<svg width="351" height="230" viewBox="0 0 351 230" fill="none" xmlns="http://www.w3.org/2000/svg">
<path d="M93.2854 22.6285H263.858C270.183 22.6285 276.446 23.8743 282.289 26.2946C288.132 28.715 293.442 32.2625 297.914 36.7348C302.386 41.207 305.934 46.5163 308.354 52.3596C310.774 58.2028 312.02 64.4656 312.02 70.7903V126.91C312.02 139.684 306.946 151.934 297.914 160.966C288.882 169.998 276.632 175.072 263.858 175.072H93.2855C80.5123 175.072 68.2621 169.998 59.23 160.966C50.198 151.934 45.1238 139.684 45.1238 126.91V70.7902C45.1238 58.0169 50.1979 45.7668 59.23 36.7347C68.2621 27.7027 80.5122 22.6285 93.2854 22.6285Z" fill="#F2E9FF"/>
<path style="mix-blend-mode:multiply" d="M78.0345 140.4C103.075 140.4 123.373 121.276 123.373 97.6851C123.373 74.0942 103.075 54.97 78.0345 54.97C52.9945 54.97 32.6956 74.0942 32.6956 97.6851C32.6956 121.276 52.9945 140.4 78.0345 140.4Z" fill="url(#paint0_radial_1925_722)"/>
<path d="M210.941 71.4713H156.706C155.313 71.4713 153.978 70.9181 152.993 69.9336C152.009 68.949 151.456 67.6136 151.456 66.2213C151.456 64.8289 152.009 63.4935 152.993 62.5089C153.978 61.5244 155.313 60.9713 156.706 60.9713H210.941C211.631 60.9712 212.314 61.107 212.95 61.3709C213.587 61.6347 214.166 62.0214 214.654 62.5089C215.141 62.9964 215.528 63.5752 215.792 64.2122C216.056 64.8491 216.191 65.5318 216.191 66.2213C216.191 66.9107 216.056 67.5934 215.792 68.2303C215.528 68.8673 215.141 69.4461 214.654 69.9336C214.166 70.4211 213.587 70.8078 212.95 71.0716C212.314 71.3355 211.631 71.4713 210.941 71.4713Z" fill="#FF74D4"/>
<path d="M210.941 71.5662H156.706C155.364 71.5661 154.073 71.0523 153.098 70.1301C152.123 69.208 151.539 67.9476 151.464 66.6078C151.459 66.7044 151.456 66.8016 151.456 66.8995C151.456 67.589 151.591 68.2717 151.855 68.9086C152.119 69.5456 152.506 70.1243 152.993 70.6118C153.481 71.0994 154.06 71.4861 154.697 71.7499C155.333 72.0137 156.016 72.1495 156.706 72.1495H210.941C211.631 72.1495 212.313 72.0137 212.95 71.7499C213.587 71.4861 214.166 71.0993 214.654 70.6118C215.141 70.1243 215.528 69.5456 215.792 68.9086C216.056 68.2717 216.191 67.589 216.191 66.8995C216.191 66.8016 216.188 66.7044 216.183 66.6078C216.108 67.9476 215.524 69.208 214.549 70.1301C213.574 71.0522 212.283 71.5661 210.941 71.5662Z" fill="#FF36AB"/>
<path d="M210.941 60.9713H156.706C156.016 60.9712 155.333 61.107 154.697 61.3709C154.06 61.6347 153.481 62.0214 152.993 62.5089C152.506 62.9964 152.119 63.5752 151.855 64.2121C151.591 64.8491 151.456 65.5318 151.456 66.2213C151.456 66.3192 151.459 66.4163 151.464 66.5129C151.539 65.1732 152.123 63.9128 153.098 62.9906C154.073 62.0685 155.364 61.5546 156.706 61.5546H210.941C212.283 61.5546 213.574 62.0685 214.549 62.9907C215.524 63.9128 216.108 65.1732 216.183 66.5129C216.188 66.4163 216.191 66.3192 216.191 66.2213C216.191 65.5318 216.056 64.8491 215.792 64.2122C215.528 63.5752 215.141 62.9964 214.654 62.5089C214.166 62.0214 213.587 61.6347 212.95 61.3709C212.314 61.107 211.631 60.9712 210.941 60.9713Z" fill="#FFC7EE"/>
<path d="M288.108 95.8397H156.706C155.313 95.8397 153.978 95.2865 152.993 94.302C152.009 93.3174 151.456 91.982 151.456 90.5896C151.456 89.1972 152.009 87.8619 152.993 86.8773C153.978 85.8928 155.313 85.3396 156.706 85.3396H288.108C288.797 85.3396 289.48 85.4754 290.117 85.7393C290.754 86.0031 291.333 86.3898 291.82 86.8773C292.308 87.3648 292.694 87.9436 292.958 88.5805C293.222 89.2175 293.358 89.9002 293.358 90.5896C293.358 91.982 292.805 93.3174 291.82 94.302C290.836 95.2865 289.5 95.8397 288.108 95.8397Z" fill="#CCDBFD"/>
<path d="M288.108 95.9346H156.706C155.364 95.9345 154.073 95.4206 153.098 94.4985C152.123 93.5764 151.539 92.316 151.464 90.9762C151.459 91.0728 151.456 91.1699 151.456 91.2678V91.2679C151.456 91.9573 151.591 92.64 151.855 93.277C152.119 93.914 152.506 94.4927 152.993 94.9802C153.481 95.4677 154.06 95.8544 154.697 96.1183C155.333 96.3821 156.016 96.5179 156.706 96.5179H288.108C288.797 96.5179 289.48 96.3821 290.117 96.1183C290.754 95.8544 291.333 95.4677 291.82 94.9802C292.308 94.4927 292.694 93.9139 292.958 93.277C293.222 92.64 293.358 91.9573 293.358 91.2679V91.2678C293.358 91.1699 293.355 91.0728 293.349 90.9762C293.275 92.316 292.69 93.5764 291.715 94.4985C290.741 95.4206 289.45 95.9345 288.108 95.9346Z" fill="#ABC4FF"/>
<path d="M288.108 85.3396H156.706C155.313 85.3396 153.978 85.8927 152.993 86.8773C152.009 87.8619 151.456 89.1973 151.456 90.5897C151.456 90.6876 151.459 90.7847 151.464 90.8813C151.539 89.5416 152.123 88.2812 153.098 87.3591C154.073 86.4369 155.364 85.9231 156.706 85.923H288.108C289.45 85.9231 290.741 86.4369 291.715 87.3591C292.69 88.2812 293.275 89.5416 293.349 90.8813C293.355 90.7847 293.358 90.6876 293.358 90.5897C293.358 89.1973 292.805 87.8619 291.82 86.8773C290.836 85.8928 289.5 85.3396 288.108 85.3396Z" fill="#F3F7FE"/>
<path d="M288.108 120.208H156.706C155.313 120.208 153.978 119.655 152.993 118.67C152.009 117.686 151.456 116.35 151.456 114.958C151.456 113.566 152.009 112.23 152.993 111.246C153.978 110.261 155.313 109.708 156.706 109.708H288.108C289.5 109.708 290.836 110.261 291.82 111.246C292.805 112.23 293.358 113.566 293.358 114.958C293.358 115.647 293.222 116.33 292.958 116.967C292.694 117.604 292.308 118.183 291.82 118.67C291.333 119.158 290.754 119.545 290.117 119.808C289.48 120.072 288.797 120.208 288.108 120.208Z" fill="#CCDBFD"/>
<path d="M288.108 120.303H156.706C155.364 120.303 154.073 119.789 153.098 118.867C152.123 117.945 151.539 116.684 151.464 115.345C151.459 115.441 151.456 115.538 151.456 115.636V115.636C151.456 117.029 152.009 118.364 152.993 119.349C153.978 120.333 155.313 120.886 156.706 120.886H288.108C289.5 120.886 290.836 120.333 291.82 119.349C292.805 118.364 293.358 117.029 293.358 115.636V115.636C293.358 115.538 293.355 115.441 293.349 115.345C293.275 116.684 292.69 117.945 291.715 118.867C290.741 119.789 289.45 120.303 288.108 120.303Z" fill="#ABC4FF"/>
<path d="M288.108 109.708H156.706C156.016 109.708 155.333 109.844 154.697 110.108C154.06 110.371 153.481 110.758 152.993 111.246C152.506 111.733 152.119 112.312 151.855 112.949C151.591 113.586 151.456 114.269 151.456 114.958C151.456 115.056 151.459 115.153 151.464 115.25C151.539 113.91 152.123 112.65 153.098 111.727C154.073 110.805 155.364 110.291 156.706 110.291H288.108C289.45 110.291 290.741 110.805 291.715 111.727C292.69 112.65 293.275 113.91 293.349 115.25C293.355 115.153 293.358 115.056 293.358 114.958C293.358 113.566 292.805 112.23 291.82 111.246C290.836 110.261 289.5 109.708 288.108 109.708Z" fill="#F3F7FE"/>
<path d="M215.003 148.638H156.706C155.313 148.638 153.978 148.085 152.993 147.1C152.009 146.116 151.456 144.78 151.456 143.388C151.456 141.995 152.009 140.66 152.993 139.675C153.978 138.691 155.313 138.138 156.706 138.138H215.003C215.692 138.138 216.375 138.274 217.012 138.537C217.649 138.801 218.228 139.188 218.715 139.675C219.203 140.163 219.589 140.742 219.853 141.379C220.117 142.016 220.253 142.698 220.253 143.388C220.253 144.077 220.117 144.76 219.853 145.397C219.589 146.034 219.203 146.613 218.715 147.1C218.228 147.588 217.649 147.974 217.012 148.238C216.375 148.502 215.692 148.638 215.003 148.638Z" fill="#CCDBFD"/>
<path d="M215.003 148.733H156.706C155.364 148.733 154.073 148.219 153.098 147.297C152.123 146.375 151.539 145.114 151.464 143.774C151.459 143.871 151.456 143.968 151.456 144.066V144.066C151.456 144.755 151.591 145.438 151.855 146.075C152.119 146.712 152.506 147.291 152.993 147.778C153.481 148.266 154.06 148.653 154.697 148.916C155.333 149.18 156.016 149.316 156.706 149.316H215.003C215.692 149.316 216.375 149.18 217.012 148.916C217.649 148.653 218.228 148.266 218.715 147.778C219.203 147.291 219.589 146.712 219.853 146.075C220.117 145.438 220.253 144.755 220.253 144.066V144.066C220.253 143.968 220.25 143.871 220.244 143.774C220.17 145.114 219.585 146.375 218.61 147.297C217.635 148.219 216.345 148.733 215.003 148.733Z" fill="#ABC4FF"/>
<path d="M215.003 138.138H156.706C156.016 138.138 155.333 138.274 154.697 138.537C154.06 138.801 153.481 139.188 152.993 139.675C152.506 140.163 152.119 140.742 151.855 141.379C151.591 142.016 151.456 142.698 151.456 143.388C151.456 143.486 151.459 143.583 151.464 143.679C151.539 142.34 152.123 141.079 153.098 140.157C154.073 139.235 155.364 138.721 156.706 138.721H215.003C216.345 138.721 217.635 139.235 218.61 140.157C219.585 141.079 220.17 142.34 220.244 143.679C220.25 143.583 220.253 143.486 220.253 143.388C220.253 142.698 220.117 142.016 219.853 141.379C219.589 140.742 219.203 140.163 218.715 139.675C218.228 139.188 217.649 138.801 217.012 138.537C216.375 138.274 215.692 138.138 215.003 138.138Z" fill="#F3F7FE"/>
<path d="M256.706 71.4713H230.9C230.21 71.4713 229.528 71.3355 228.891 71.0716C228.254 70.8078 227.675 70.4211 227.187 69.9336C226.7 69.4461 226.313 68.8673 226.049 68.2303C225.785 67.5934 225.65 66.9107 225.65 66.2213C225.65 65.5318 225.785 64.8491 226.049 64.2122C226.313 63.5752 226.7 62.9964 227.187 62.5089C227.675 62.0214 228.254 61.6347 228.891 61.3709C229.528 61.107 230.21 60.9712 230.9 60.9713H256.706C257.395 60.9712 258.078 61.107 258.715 61.3709C259.352 61.6347 259.93 62.0214 260.418 62.5089C260.905 62.9964 261.292 63.5752 261.556 64.2122C261.82 64.8491 261.956 65.5318 261.956 66.2213C261.956 66.9107 261.82 67.5934 261.556 68.2303C261.292 68.8673 260.905 69.4461 260.418 69.9336C259.93 70.4211 259.352 70.8078 258.715 71.0716C258.078 71.3355 257.395 71.4713 256.706 71.4713Z" fill="#FEC55E"/>
<path d="M256.706 71.5662H230.9C229.558 71.5661 228.267 71.0522 227.292 70.1301C226.317 69.208 225.733 67.9476 225.658 66.6078C225.653 66.7044 225.65 66.8016 225.65 66.8995C225.65 67.589 225.785 68.2716 226.049 68.9086C226.313 69.5456 226.7 70.1243 227.187 70.6118C227.675 71.0993 228.254 71.4861 228.891 71.7499C229.528 72.0137 230.21 72.1495 230.9 72.1495H256.706C257.395 72.1495 258.078 72.0137 258.715 71.7499C259.352 71.4861 259.93 71.0993 260.418 70.6118C260.905 70.1243 261.292 69.5456 261.556 68.9086C261.82 68.2717 261.956 67.589 261.956 66.8995C261.956 66.8016 261.952 66.7044 261.947 66.6078C261.873 67.9476 261.288 69.208 260.313 70.1301C259.338 71.0522 258.047 71.5661 256.706 71.5662Z" fill="#BF9447"/>
<path d="M256.706 60.9713H230.9C230.21 60.9712 229.528 61.107 228.891 61.3709C228.254 61.6347 227.675 62.0214 227.187 62.5089C226.7 62.9964 226.313 63.5752 226.049 64.2122C225.785 64.8491 225.65 65.5318 225.65 66.2213C225.65 66.3192 225.653 66.4163 225.658 66.5129C225.733 65.1732 226.317 63.9128 227.292 62.9906C228.267 62.0685 229.558 61.5546 230.9 61.5546H256.706C258.047 61.5546 259.338 62.0685 260.313 62.9906C261.288 63.9128 261.873 65.1732 261.947 66.5129C261.952 66.4163 261.956 66.3192 261.956 66.2213C261.956 65.5318 261.82 64.8491 261.556 64.2122C261.292 63.5752 260.905 62.9964 260.418 62.5089C259.93 62.0214 259.352 61.6347 258.715 61.3709C258.078 61.107 257.395 60.9712 256.706 60.9713Z" fill="#FEDC9E"/>
<path d="M69.431 127.102C66.8909 126.168 64.1562 125.889 61.4799 126.291L24.7435 131.454C23.6284 131.624 22.4886 131.509 21.4297 131.121L34.7766 136.122C35.8355 136.511 36.9754 136.626 38.0905 136.456L74.8269 131.293C77.5032 130.891 80.2379 131.169 82.778 132.103L69.431 127.102Z" fill="url(#paint1_linear_1925_722)"/>
<path d="M116.206 40.0163L32.6809 51.755C27.4001 52.4972 22.5614 58.6975 21.8735 65.6036L16.4268 120.293C15.739 127.2 19.4626 132.197 24.7433 131.454L61.4798 126.291C64.3201 125.85 67.2269 126.192 69.8871 127.281C72.5473 128.37 74.8601 130.163 76.5764 132.469L87.9735 147.091C88.2504 147.476 88.6282 147.776 89.0652 147.96C89.5022 148.143 89.9813 148.202 90.4496 148.13C92.4062 147.855 94.4753 145.599 94.7712 142.609L95.6189 134.072L95.9234 131.015C96.4569 125.658 100.21 120.848 104.307 120.272L108.269 119.716C113.55 118.973 118.391 112.773 119.079 105.867L124.526 51.1769C125.213 44.2708 121.487 39.2741 116.206 40.0163Z" fill="url(#paint2_linear_1925_722)"/>
<path d="M116.207 40.0163L32.6813 51.755C30.2468 52.2044 28.039 53.4725 26.4243 55.3491C27.9199 53.882 29.8262 52.9044 31.8903 52.546L115.416 40.8072C121.595 40.3504 124.608 44.5295 123.735 51.9679L118.314 105.115C117.626 112.021 112.785 118.222 107.504 118.964L103.542 119.521C99.4454 120.097 95.6919 124.907 95.1583 130.264L94.8539 133.32L93.9806 143.4C93.8501 144.784 93.3143 146.1 92.4402 147.181C93.7808 146.017 94.6167 144.378 94.7716 142.609L95.6193 134.072L95.9237 131.015C96.4572 125.658 100.211 120.848 104.307 120.272L108.269 119.716C113.55 118.973 118.391 112.773 119.079 105.867L124.526 51.1769C125.214 44.2708 121.488 39.2741 116.207 40.0163Z" fill="#A461FE"/>
<path d="M137.945 54.8327C138.019 51.5472 136.978 47.882 134.114 45.9834C134.121 45.6709 120.065 40.6076 119.521 40.3504C123.716 41.9943 124.967 47.0805 124.526 51.1769L119.079 105.867C119.016 106.464 118.925 107.058 118.806 107.648C118.171 110.8 116.697 113.723 114.539 116.109C108.148 123.181 102.614 116.324 97.3562 126.114C96.0706 128.437 95.8493 131.472 95.6191 134.072L94.7713 142.609C94.5423 145.306 92.2319 148.847 89.1685 148.001L102.515 153.002C103.046 153.157 103.606 153.177 104.146 153.059C104.686 152.942 105.188 152.692 105.607 152.331L105.607 152.331C106.322 151.754 106.913 151.039 107.345 150.227C107.776 149.416 108.039 148.526 108.118 147.611L108.966 139.073C109.202 136.475 109.415 133.446 110.697 131.128C112.084 128.378 114.488 125.771 117.654 125.274C118.375 125.155 121.934 124.725 122.569 124.523C125.372 123.757 127.653 121.707 129.286 119.363C130.808 117.164 131.827 114.657 132.27 112.02C132.332 111.637 132.388 111.254 132.426 110.868L137.873 56.1787C137.919 55.7316 137.944 55.2823 137.945 54.8327Z" fill="url(#paint3_linear_1925_722)"/>
<path d="M108.665 75.9938C108.854 69.8395 104.48 69.3427 99.8922 67.5824C107.318 71.2731 101.725 86.1396 93.7251 84.0441C95.3711 84.4857 99.5607 86.7094 101.306 86.2707C105.883 85.3933 108.555 80.3541 108.665 75.9938Z" fill="url(#paint4_linear_1925_722)"/>
<path d="M97.6511 67.3566C94.0795 67.8585 90.8086 72.0529 90.3435 76.7236C89.8783 81.3944 92.3951 84.7719 95.9666 84.2699C99.5381 83.768 102.811 79.5767 103.277 74.906C103.742 70.2352 101.223 66.8546 97.6511 67.3566Z" fill="#F9FEFA"/>
<path d="M77.7525 80.4679C77.9416 74.3136 73.5677 73.8168 68.9801 72.0565C76.4062 75.7472 70.8132 90.6137 62.813 88.5183C64.459 88.9598 68.6486 91.1835 70.3935 90.7448C74.9711 89.8675 77.6429 84.8282 77.7525 80.4679Z" fill="url(#paint5_linear_1925_722)"/>
<path d="M66.739 71.8307C63.1674 72.3326 59.8965 76.527 59.4314 81.1977C58.9662 85.8685 61.483 89.246 65.0545 88.7441C68.626 88.2421 71.8992 84.0508 72.3644 79.3801C72.8296 74.7093 70.3105 71.3288 66.739 71.8307Z" fill="#F9FEFA"/>
<path d="M46.8403 84.942C47.0295 78.7878 42.6556 78.291 38.068 76.5306C45.4941 80.2213 39.9011 95.0879 31.9009 92.9924C33.5468 93.4339 37.7365 95.6577 39.4813 95.219C44.059 94.3416 46.7307 89.3023 46.8403 84.942Z" fill="url(#paint6_linear_1925_722)"/>
<path d="M35.8273 76.3048C32.2558 76.8067 28.9849 81.0011 28.5197 85.6718C28.0546 90.3426 30.5713 93.7201 34.1429 93.2181C37.7144 92.7162 40.9876 88.5249 41.4528 83.8542C41.918 79.1834 39.3989 75.8029 35.8273 76.3048Z" fill="#F9FEFA"/>
<path d="M342.12 17.6568C342.122 17.6138 342.124 17.5709 342.125 17.5282C342.128 17.4386 342.129 17.3496 342.129 17.2612C342.129 17.2259 342.129 17.1903 342.129 17.1552C342.129 17.1426 342.129 17.1298 342.129 17.1173C342.127 17.0147 342.122 16.9133 342.115 16.8125C342.114 16.7878 342.112 16.7635 342.11 16.7389C342.103 16.6392 342.093 16.5405 342.082 16.4426C342.08 16.4217 342.078 16.4005 342.075 16.3797C342.064 16.2856 342.05 16.1921 342.035 16.0998C342.033 16.0865 342.03 16.0737 342.027 16.0604C342.017 15.9975 342.004 15.9357 341.991 15.8736C341.979 15.8126 341.967 15.7512 341.953 15.691C341.939 15.6297 341.923 15.5695 341.907 15.5091C341.894 15.4623 341.884 15.4144 341.871 15.3682C341.867 15.3548 341.862 15.342 341.858 15.3286C341.847 15.289 341.834 15.2501 341.822 15.2108C341.799 15.1406 341.777 15.0708 341.752 15.002C341.738 14.9604 341.722 14.9193 341.707 14.8782C341.694 14.8447 341.683 14.8103 341.669 14.7771C341.656 14.7424 341.64 14.7088 341.626 14.6744C341.612 14.6415 341.598 14.6086 341.584 14.576C341.548 14.496 341.511 14.417 341.473 14.3393C341.463 14.3204 341.455 14.301 341.445 14.2822L341.439 14.2685C341.393 14.1791 341.345 14.0917 341.295 14.0054C341.281 13.9814 341.266 13.9578 341.252 13.934C341.228 13.8943 341.205 13.854 341.181 13.8149C341.162 13.7859 341.143 13.7579 341.124 13.7293C341.108 13.7047 341.092 13.6799 341.075 13.6556C341.017 13.5698 340.957 13.4851 340.895 13.4028L340.894 13.4024L340.894 13.4021C340.832 13.3198 340.766 13.2402 340.699 13.1617C340.681 13.1398 340.662 13.1183 340.643 13.0967C340.621 13.0718 340.6 13.0462 340.577 13.0217C340.533 12.973 340.488 12.9252 340.442 12.8781L334.993 7.30135C335.063 7.3721 335.129 7.44558 335.194 7.51991C335.213 7.5415 335.232 7.56305 335.251 7.58494C335.318 7.66347 335.383 7.74323 335.446 7.82552L335.447 7.82655C335.509 7.90859 335.569 7.99308 335.627 8.07876C335.643 8.10314 335.659 8.12788 335.675 8.15255C335.72 8.21976 335.762 8.28805 335.804 8.35743C335.818 8.38116 335.832 8.40458 335.846 8.42855C335.899 8.51923 335.949 8.61155 335.997 8.70552C336.006 8.72414 336.015 8.74338 336.024 8.76214C336.063 8.84011 336.1 8.91916 336.135 8.9993C336.15 9.03177 336.163 9.06466 336.177 9.09749C336.205 9.16473 336.232 9.23275 336.258 9.30155C336.274 9.34256 336.289 9.38362 336.304 9.42515C336.328 9.49411 336.351 9.56403 336.373 9.63435C336.385 9.67345 336.398 9.71221 336.41 9.75173C336.427 9.81127 336.442 9.87213 336.458 9.9326C336.474 9.99294 336.49 10.053 336.505 10.1142C336.518 10.1744 336.53 10.2358 336.542 10.2969C336.555 10.3589 336.568 10.4207 336.579 10.4836C336.597 10.5889 336.613 10.6952 336.627 10.8029C336.629 10.8237 336.631 10.8448 336.634 10.8657C336.645 10.9637 336.654 11.0626 336.661 11.1625C336.663 11.1869 336.665 11.2111 336.667 11.2356C336.674 11.3488 336.678 11.4631 336.68 11.5786C336.681 11.6135 336.68 11.6489 336.68 11.684C336.681 11.7726 336.68 11.8618 336.677 11.9517C336.675 11.9942 336.674 12.0369 336.671 12.0797C336.667 12.1679 336.661 12.2568 336.654 12.3461C336.651 12.3854 336.648 12.4245 336.644 12.4639C336.632 12.5913 336.618 12.7195 336.599 12.849L331.293 50.2713C331.275 50.3978 331.253 50.5239 331.23 50.6496C331.225 50.6737 331.221 50.6978 331.216 50.7219C331.193 50.843 331.167 50.9636 331.138 51.0839C331.133 51.1068 331.127 51.1295 331.121 51.1524C331.092 51.272 331.06 51.3913 331.026 51.5099L331.021 51.5278C330.986 51.6499 330.947 51.7712 330.907 51.8921C330.899 51.9163 330.891 51.9405 330.882 51.9646C330.842 52.0815 330.8 52.1978 330.755 52.3134C330.746 52.3382 330.736 52.3629 330.726 52.3877C330.686 52.4876 330.645 52.5869 330.602 52.6857C330.591 52.7114 330.581 52.7372 330.569 52.7629C330.518 52.8782 330.465 52.9927 330.41 53.1065C330.398 53.1301 330.386 53.1536 330.375 53.1772C330.334 53.2587 330.292 53.3395 330.249 53.4201C330.214 53.4871 330.178 53.5539 330.141 53.6202C330.106 53.682 330.072 53.7436 330.036 53.8048C329.998 53.8706 329.959 53.936 329.919 54.001C329.88 54.0656 329.84 54.1302 329.799 54.1941C329.77 54.2405 329.74 54.2867 329.709 54.3326C329.663 54.403 329.616 54.4729 329.568 54.5422C329.537 54.5864 329.507 54.6307 329.475 54.6745C329.416 54.7574 329.356 54.8394 329.295 54.9207C329.276 54.9453 329.258 54.9702 329.24 54.9946C329.158 55.1006 329.075 55.2052 328.99 55.3085C328.972 55.3309 328.953 55.3528 328.934 55.3751C328.867 55.4552 328.799 55.5344 328.73 55.6128C328.703 55.644 328.675 55.675 328.647 55.7059C328.578 55.783 328.508 55.8592 328.436 55.9345C328.416 55.9554 328.397 55.9766 328.377 55.9973C328.286 56.0914 328.194 56.1839 328.1 56.2749C328.079 56.2959 328.057 56.3164 328.035 56.3372C327.96 56.4091 327.884 56.48 327.807 56.5499C327.779 56.5751 327.751 56.6003 327.723 56.6251C327.63 56.7081 327.536 56.7896 327.441 56.8697L327.425 56.8831C327.325 56.9666 327.222 57.0479 327.12 57.1279C327.089 57.1514 327.059 57.1744 327.028 57.1976C326.949 57.2576 326.87 57.3166 326.79 57.3745C326.76 57.396 326.73 57.4178 326.7 57.439C326.592 57.5157 326.482 57.591 326.372 57.6637L326.362 57.6697C326.255 57.7396 326.147 57.8071 326.039 57.8732C325.999 57.8974 325.958 57.9208 325.918 57.9444C325.842 57.9897 325.764 58.0342 325.687 58.0777C325.643 58.102 325.599 58.1261 325.555 58.1498C325.484 58.1886 325.411 58.2261 325.339 58.2632C325.284 58.2915 325.228 58.3197 325.173 58.347C325.102 58.3817 325.03 58.415 324.959 58.4481C324.904 58.4737 324.848 58.4995 324.793 58.5241C324.684 58.5719 324.576 58.6183 324.467 58.6622C324.449 58.6692 324.431 58.6759 324.414 58.6829C324.296 58.7293 324.178 58.7738 324.059 58.8156L324.041 58.8222C323.918 58.8651 323.794 58.905 323.67 58.9429L323.616 58.9594C323.497 58.9951 323.377 59.0283 323.257 59.059L323.195 59.0748C323.075 59.1048 322.954 59.1323 322.833 59.1574L322.774 59.1693C322.651 59.194 322.527 59.2166 322.403 59.2361L322.361 59.2422C322.23 59.2621 322.099 59.2797 321.967 59.2936L284.495 63.2593C283.464 63.3807 282.418 63.2795 281.429 62.9624C281.204 62.8875 280.983 62.7997 280.768 62.6993C280.349 62.5043 279.955 62.2599 279.594 61.9714C279.417 61.8292 279.248 61.6763 279.089 61.5137L279.089 61.5138L279.089 61.5137L284.538 67.0905C285.245 67.7763 286.1 68.2904 287.038 68.5931C287.975 68.8957 288.969 68.9789 289.944 68.8361L327.416 64.8704C327.547 64.8565 327.679 64.8389 327.809 64.819L327.851 64.8129C327.976 64.7934 328.099 64.7708 328.223 64.7461C328.243 64.7421 328.262 64.7383 328.282 64.7342C328.403 64.7092 328.523 64.6816 328.643 64.6516L328.706 64.6358C328.826 64.6049 328.946 64.5717 329.065 64.5362L329.119 64.5197C329.161 64.5068 329.203 64.4943 329.245 64.4808C329.327 64.4547 329.408 64.4274 329.489 64.399L329.508 64.3924C329.626 64.3506 329.745 64.3061 329.862 64.2597C329.88 64.2528 329.897 64.246 329.915 64.2389C330.004 64.2031 330.093 64.1665 330.182 64.1281C330.202 64.1194 330.221 64.1097 330.241 64.1009C330.297 64.0763 330.352 64.0505 330.407 64.0249C330.479 63.9918 330.55 63.9586 330.621 63.9239C330.677 63.8965 330.732 63.8683 330.788 63.8399C330.828 63.8194 330.868 63.8001 330.908 63.779C330.941 63.7621 330.972 63.7439 331.004 63.7266C331.048 63.7028 331.092 63.6788 331.135 63.6545C331.213 63.6111 331.29 63.5667 331.367 63.5213C331.407 63.4975 331.447 63.4742 331.487 63.4499C331.504 63.44 331.52 63.4307 331.537 63.4207C331.629 63.3641 331.72 63.306 331.811 63.2465L331.82 63.2405C331.915 63.1784 332.009 63.1148 332.102 63.0498C332.117 63.0387 332.133 63.027 332.149 63.0159C332.179 62.9945 332.208 62.9727 332.238 62.9511C332.319 62.8932 332.398 62.8343 332.477 62.7744C332.507 62.7512 332.538 62.7282 332.568 62.7046C332.586 62.6905 332.605 62.677 332.623 62.6627C332.707 62.5963 332.791 62.5287 332.874 62.4599L332.889 62.4464C332.964 62.3838 333.039 62.3203 333.112 62.2559C333.132 62.2382 333.152 62.2198 333.172 62.202C333.2 62.177 333.228 62.1518 333.255 62.1266C333.332 62.0567 333.408 61.9859 333.484 61.9139C333.505 61.8931 333.527 61.8727 333.549 61.8517L333.577 61.8251C333.661 61.7428 333.744 61.6591 333.825 61.5741C333.845 61.5533 333.865 61.5321 333.885 61.5112C333.931 61.4625 333.977 61.4141 334.023 61.3647C334.048 61.3377 334.071 61.3099 334.096 61.2828C334.124 61.2518 334.151 61.2207 334.179 61.1895C334.248 61.1111 334.316 61.0318 334.383 60.9515C334.402 60.9294 334.42 60.9076 334.439 60.8854L334.457 60.8639C334.536 60.7677 334.613 60.6701 334.688 60.5714C334.707 60.547 334.725 60.5221 334.743 60.4976C334.79 60.4354 334.837 60.3734 334.883 60.3103C334.897 60.2908 334.91 60.2707 334.924 60.2511C334.955 60.2075 334.985 60.1634 335.016 60.1193C335.064 60.0497 335.111 59.9797 335.158 59.9092C335.188 59.8633 335.218 59.8172 335.248 59.7709C335.267 59.7404 335.287 59.7105 335.307 59.6798C335.328 59.6461 335.347 59.6115 335.368 59.5776C335.407 59.5126 335.446 59.4473 335.485 59.3817C335.52 59.3204 335.555 59.2587 335.589 59.1967C335.626 59.1304 335.662 59.0639 335.698 58.997C335.714 58.9667 335.731 58.9369 335.747 58.9064C335.773 58.8558 335.798 58.8045 335.823 58.7535C335.835 58.7301 335.847 58.7068 335.858 58.6833C335.914 58.5696 335.967 58.455 336.018 58.3395C336.029 58.3139 336.04 58.2882 336.051 58.2626C336.094 58.1636 336.135 58.0641 336.174 57.9641C336.184 57.9394 336.194 57.915 336.204 57.8903C336.209 57.8769 336.215 57.8637 336.22 57.8504C336.259 57.7479 336.295 57.6447 336.331 57.5411C336.339 57.5171 336.347 57.4931 336.355 57.4691C336.396 57.3481 336.434 57.2266 336.47 57.1044L336.475 57.0872C336.509 56.9683 336.54 56.8487 336.57 56.7288C336.575 56.7061 336.581 56.6835 336.586 56.6608C336.615 56.5405 336.641 56.4198 336.665 56.2986C336.669 56.2746 336.674 56.2504 336.678 56.2263C336.702 56.1006 336.723 55.9746 336.741 55.848L342.048 18.4257C342.066 18.2963 342.081 18.1682 342.093 18.0408C342.097 18.0012 342.099 17.9619 342.103 17.9225C342.11 17.8334 342.116 17.7448 342.12 17.6568Z" fill="url(#paint7_linear_1925_722)"/>
<path d="M329.587 5.55561L292.115 9.52129C287.604 9.99872 283.429 14.0383 282.79 18.5436L277.483 55.966C276.844 60.4721 279.984 63.7367 284.495 63.2593L321.967 59.2936C326.478 58.8162 330.654 54.7774 331.293 50.2713L336.599 12.849C337.238 8.34368 334.099 5.07818 329.587 5.55561Z" fill="#F2FBFE"/>
<path d="M306.246 13.8552C296.267 14.9146 287.099 23.8692 285.82 33.8368C284.588 43.4315 291.246 50.547 300.818 49.8612C301.023 49.8465 301.228 49.8284 301.432 49.807C304.32 49.4757 307.11 48.5586 309.632 47.1117C310.464 46.637 311.384 46.337 312.336 46.2301C312.703 46.191 313.072 46.1857 313.44 46.2145L316.76 46.4799C316.892 46.4902 317.024 46.4884 317.155 46.4745C317.831 46.3801 318.452 46.0477 318.905 45.5371C319.358 45.0265 319.614 44.371 319.628 43.6884L319.39 39.1117C319.344 38.0454 319.563 36.9843 320.025 36.0227C321.056 33.8783 321.706 31.5709 321.946 29.2037C322.844 19.6533 315.882 12.8423 306.246 13.8552Z" fill="url(#paint8_linear_1925_722)"/>
<path d="M306.246 13.8552C303.693 14.1439 301.215 14.8946 298.931 16.0705C301.157 14.9529 303.563 14.238 306.038 13.9589C315.675 12.9461 322.637 19.757 321.739 29.3075C321.499 31.6747 320.849 33.9821 319.818 36.1264C319.355 37.0881 319.137 38.1492 319.183 39.2155L319.42 43.7922C319.416 44.3019 319.273 44.8009 319.008 45.2362C318.743 45.6714 318.364 46.0267 317.913 46.2643C318.417 46.0456 318.846 45.6862 319.151 45.2293C319.455 44.7723 319.62 44.2373 319.628 43.6884L319.391 39.1117C319.345 38.0454 319.563 36.9843 320.026 36.0227C321.057 33.8783 321.707 31.5709 321.946 29.2037C322.844 19.6533 315.882 12.8423 306.246 13.8552Z" fill="#7B90F3"/>
<path d="M309.177 28.9645C309.182 28.9359 309.187 28.9074 309.191 28.879C309.2 28.8218 309.207 28.765 309.212 28.7084C309.215 28.6836 309.218 28.6587 309.22 28.6341C309.226 28.5541 309.23 28.4746 309.231 28.3961L309.231 28.3953C309.231 28.3927 309.23 28.3902 309.23 28.3876C309.231 28.3136 309.228 28.2406 309.223 28.1682C309.221 28.144 309.219 28.1202 309.216 28.0962C309.212 28.0451 309.206 27.9943 309.199 27.9442C309.197 27.9323 309.197 27.9199 309.195 27.9081C309.191 27.8861 309.187 27.8646 309.183 27.8428C309.179 27.8197 309.175 27.7966 309.17 27.7737C309.162 27.7335 309.152 27.6938 309.142 27.6543C309.137 27.6349 309.133 27.6153 309.128 27.5961L309.124 27.5806C309.11 27.531 309.095 27.482 309.078 27.4337C309.074 27.4222 309.07 27.411 309.066 27.3996C309.056 27.3714 309.046 27.3431 309.035 27.3154C309.032 27.3063 309.027 27.2978 309.023 27.2887C308.999 27.2292 308.973 27.1709 308.944 27.1138C308.94 27.1054 308.937 27.0966 308.933 27.0883L308.93 27.083C308.898 27.0196 308.862 26.958 308.825 26.8979L308.818 26.8861C308.81 26.8722 308.799 26.8594 308.79 26.8457C308.764 26.8052 308.737 26.7653 308.708 26.7265C308.702 26.7186 308.697 26.7101 308.691 26.7023C308.682 26.6896 308.67 26.6779 308.66 26.6654C308.634 26.6316 308.606 26.5985 308.578 26.5661C308.569 26.5556 308.56 26.5441 308.551 26.5337C308.531 26.5121 308.511 26.4909 308.491 26.47L307.818 25.7819C307.849 25.8129 307.877 25.8456 307.906 25.8781C307.934 25.9104 307.961 25.9435 307.988 25.9772C308.004 25.9975 308.02 26.0177 308.036 26.0384C308.064 26.0772 308.092 26.1172 308.118 26.1577C308.13 26.1751 308.142 26.1921 308.153 26.2098C308.19 26.27 308.225 26.3316 308.258 26.395C308.263 26.4049 308.267 26.4154 308.272 26.4254C308.3 26.4826 308.327 26.541 308.351 26.6007C308.366 26.6371 308.38 26.6738 308.393 26.7111C308.397 26.7227 308.402 26.734 308.406 26.7457C308.424 26.799 308.441 26.8532 308.456 26.9081C308.461 26.9272 308.465 26.9467 308.47 26.966C308.48 27.0056 308.489 27.0453 308.497 27.0857C308.502 27.1085 308.506 27.1316 308.51 27.1546C308.516 27.1882 308.522 27.2221 308.527 27.2562C308.534 27.3062 308.539 27.3569 308.544 27.4078C308.546 27.4319 308.549 27.4559 308.551 27.4802C308.556 27.5523 308.558 27.625 308.558 27.6986C308.558 27.7018 308.558 27.7049 308.558 27.708C308.558 27.7865 308.554 27.866 308.548 27.9459C308.546 27.9706 308.543 27.9955 308.54 28.0202C308.534 28.0769 308.527 28.1338 308.519 28.191C308.515 28.2193 308.51 28.2477 308.505 28.2762C308.495 28.3334 308.483 28.3909 308.47 28.4485C308.464 28.4743 308.459 28.5001 308.452 28.526C308.432 28.6087 308.409 28.6916 308.382 28.775C308.366 28.8246 308.347 28.8741 308.329 28.9236C308.312 28.9698 308.296 29.016 308.277 29.062C308.261 29.1024 308.243 29.1426 308.225 29.1828C308.205 29.2283 308.185 29.2738 308.164 29.3191C308.13 29.3907 308.094 29.4622 308.056 29.533L308.046 29.5496C308.007 29.6205 307.966 29.6909 307.923 29.7606L307.897 29.8015C307.854 29.8698 307.809 29.9375 307.761 30.0045C307.728 30.051 307.693 30.0965 307.658 30.1423C307.632 30.1769 307.607 30.2119 307.579 30.2461C307.552 30.2799 307.523 30.3128 307.495 30.3461C307.459 30.3883 307.424 30.4307 307.387 30.4721C307.36 30.5011 307.333 30.5291 307.306 30.5576C307.257 30.6083 307.21 30.6593 307.159 30.7087L303.986 33.7951L303.973 33.8073C303.956 33.8243 303.94 33.8415 303.924 33.859L303.913 33.872L303.899 33.889C303.892 33.8973 303.885 33.9055 303.878 33.9139C303.867 33.9277 303.857 33.9418 303.847 33.9559L303.837 33.9689L303.833 33.9739C303.817 33.9965 303.803 34.0194 303.789 34.0425L303.785 34.049C303.778 34.0607 303.773 34.0727 303.766 34.0845C303.758 34.0988 303.75 34.1129 303.743 34.1273L303.74 34.135C303.722 34.1735 303.705 34.213 303.692 34.2534L303.688 34.2616C303.684 34.276 303.68 34.2904 303.676 34.3048C303.672 34.3169 303.668 34.329 303.665 34.3412C303.66 34.3611 303.657 34.3809 303.653 34.4008C303.651 34.4115 303.648 34.4221 303.646 34.4327C303.642 34.4595 303.639 34.4863 303.636 34.513L303.635 34.5242C303.633 34.5537 303.631 34.5831 303.631 34.6125L303.631 34.6154C303.631 34.6371 303.632 34.6586 303.634 34.6802C303.634 34.6903 303.634 34.7005 303.635 34.7104C303.637 34.742 303.641 34.7732 303.646 34.8041V34.8043L303.646 34.8049C303.653 34.8475 303.662 34.8897 303.673 34.9314L303.677 34.9466L303.681 34.9598C303.692 34.9965 303.703 35.0326 303.717 35.0676L303.717 35.0678L303.718 35.0695C303.731 35.102 303.745 35.1333 303.761 35.164L303.765 35.1746C303.774 35.1922 303.784 35.2094 303.793 35.2264L308.084 41.845C308.093 41.8593 308.1 41.8741 308.107 41.8891L308.116 41.9098C308.121 41.9196 308.125 41.9295 308.128 41.9396L308.138 41.967L308.145 41.9936C308.149 42.0075 308.152 42.0217 308.154 42.036L308.158 42.0573C308.162 42.0877 308.164 42.1183 308.165 42.149C308.165 42.1545 308.164 42.16 308.164 42.1655C308.164 42.2013 308.16 42.2371 308.155 42.2724L308.152 42.2879C308.145 42.3247 308.136 42.3609 308.124 42.3964L308.119 42.4122C308.107 42.4459 308.094 42.4789 308.078 42.511L308.07 42.5276C308.061 42.5446 308.052 42.5614 308.042 42.5781C308.037 42.5878 308.031 42.5973 308.024 42.6069C308.018 42.6169 308.012 42.6269 308.005 42.6367C307.997 42.648 307.989 42.6591 307.981 42.6702L307.965 42.6912C307.953 42.7072 307.94 42.7229 307.926 42.7383L307.922 42.743C307.906 42.7611 307.889 42.7789 307.871 42.7962C307.854 42.8133 307.835 42.8292 307.817 42.8447L307.803 42.8566C307.784 42.8723 307.765 42.8872 307.745 42.9012L307.735 42.9079C307.718 42.9194 307.701 42.9303 307.684 42.9406L307.661 42.9539C307.648 42.9614 307.635 42.9685 307.621 42.9753L307.59 42.9904C307.579 42.9955 307.568 43.0002 307.557 43.0048C307.54 43.0118 307.523 43.0183 307.506 43.0241C307.497 43.0276 307.487 43.0311 307.477 43.0342C307.459 43.0398 307.441 43.0445 307.423 43.0488C307.414 43.0509 307.406 43.0533 307.397 43.0551C307.371 43.0606 307.345 43.0649 307.318 43.0678C307.171 43.0869 307.022 43.0524 306.899 42.9706L299.802 37.7492C299.654 37.6508 299.517 37.5372 299.393 37.4102L300.065 38.0983C300.189 38.2252 300.326 38.3389 300.474 38.4372L307.571 43.6587C307.695 43.7405 307.844 43.775 307.991 43.7558C308.017 43.7531 308.043 43.7486 308.07 43.7431C308.078 43.7414 308.087 43.7389 308.095 43.7368C308.113 43.7325 308.131 43.7278 308.149 43.7222L308.161 43.7191L308.179 43.7122C308.196 43.7062 308.213 43.6998 308.229 43.6928L308.246 43.6865L308.263 43.6784L308.293 43.6633L308.312 43.6542L308.333 43.6419L308.356 43.6286L308.369 43.6214C308.382 43.6134 308.394 43.6047 308.407 43.5961L308.417 43.5892L308.42 43.5874C308.436 43.5761 308.451 43.5643 308.467 43.5519L308.475 43.5447L308.49 43.5327L308.511 43.5145C308.522 43.5047 308.533 43.4946 308.544 43.4842L308.554 43.4743C308.568 43.4603 308.581 43.4461 308.594 43.4315L308.595 43.4309L308.598 43.4268C308.61 43.4131 308.622 43.3992 308.633 43.3851L308.638 43.3793L308.653 43.3582C308.66 43.35 308.666 43.3419 308.672 43.3335L308.678 43.3247C308.684 43.3149 308.691 43.3049 308.697 43.2949L308.71 43.2742L308.715 43.2661C308.724 43.2495 308.733 43.2328 308.742 43.2159L308.75 43.2014L308.751 43.199C308.766 43.1669 308.78 43.134 308.791 43.1003L308.795 43.0907L308.797 43.0844C308.808 43.0489 308.817 43.0127 308.824 42.976L308.827 42.9604C308.833 42.9251 308.836 42.8894 308.837 42.8536L308.837 42.845C308.837 42.8423 308.837 42.8397 308.837 42.837C308.837 42.8063 308.835 42.7757 308.83 42.7454L308.83 42.7394L308.826 42.724C308.824 42.7097 308.821 42.6956 308.817 42.6816L308.815 42.6695L308.81 42.6551L308.801 42.6275L308.796 42.6139L308.789 42.5979L308.78 42.5771L308.775 42.5664C308.769 42.5551 308.763 42.5439 308.756 42.533L304.466 35.9144C304.454 35.8942 304.443 35.8731 304.433 35.852C304.418 35.8213 304.403 35.79 304.39 35.7576L304.39 35.7556C304.376 35.7207 304.364 35.6845 304.353 35.6479L304.346 35.6195C304.334 35.5778 304.325 35.5356 304.318 35.493L304.318 35.4922C304.313 35.4613 304.31 35.4301 304.307 35.3986C304.306 35.3881 304.306 35.3775 304.306 35.367C304.305 35.3459 304.304 35.3247 304.304 35.3034C304.304 35.2731 304.305 35.2427 304.307 35.2122L304.309 35.2015C304.311 35.1746 304.314 35.1476 304.319 35.1207C304.32 35.1102 304.323 35.0998 304.325 35.0893C304.329 35.0693 304.333 35.0493 304.338 35.0293C304.341 35.0171 304.345 35.005 304.348 34.9928C304.353 34.9757 304.358 34.9585 304.364 34.9414C304.378 34.9011 304.394 34.8616 304.412 34.8231C304.42 34.806 304.429 34.7891 304.439 34.7722C304.445 34.7605 304.451 34.7488 304.458 34.7371C304.473 34.7101 304.491 34.6834 304.509 34.657L304.519 34.644C304.535 34.6214 304.553 34.5991 304.571 34.577L304.586 34.5601C304.608 34.5341 304.632 34.5083 304.658 34.4832L307.832 31.3967C307.848 31.381 307.864 31.3651 307.88 31.3492C307.914 31.3155 307.945 31.2805 307.977 31.2461C308.005 31.2174 308.033 31.1892 308.059 31.1601L308.075 31.1428C308.107 31.1073 308.136 31.0706 308.167 31.0345C308.195 31.001 308.224 30.968 308.252 30.9341L308.264 30.92C308.287 30.8906 308.308 30.8602 308.33 30.8305C308.365 30.7846 308.401 30.739 308.434 30.6925L308.448 30.6739C308.49 30.6131 308.53 30.5515 308.569 30.4896L308.595 30.4486C308.607 30.4291 308.62 30.4099 308.631 30.3904C308.662 30.3399 308.69 30.2889 308.718 30.2379L308.728 30.2209C308.761 30.1612 308.792 30.1011 308.821 30.0406C308.827 30.0295 308.831 30.0182 308.836 30.007C308.858 29.9619 308.877 29.9165 308.897 29.8712C308.915 29.8307 308.933 29.7904 308.95 29.7498C308.968 29.704 308.984 29.658 309.001 29.612C309.013 29.5805 309.026 29.5491 309.037 29.5175L309.054 29.463C309.081 29.3797 309.104 29.2967 309.125 29.214C309.131 29.188 309.136 29.1624 309.142 29.1365C309.155 29.079 309.167 29.0216 309.177 28.9645Z" fill="url(#paint9_linear_1925_722)"/>
<path d="M324.246 30.6715C324.248 30.6178 324.25 30.5644 324.252 30.5109C324.255 30.4282 324.258 30.3455 324.26 30.2632C324.261 30.2071 324.262 30.1512 324.263 30.0953C324.264 30.0468 324.265 29.9979 324.265 29.9496C324.265 29.9152 324.265 29.8811 324.265 29.8469C324.265 29.8039 324.265 29.7611 324.264 29.7183C324.264 29.6256 324.262 29.5333 324.26 29.4413C324.259 29.4052 324.258 29.3689 324.257 29.3329C324.253 29.207 324.248 29.0816 324.241 28.9568L324.238 28.9049C324.231 28.7972 324.224 28.69 324.216 28.5832C324.213 28.5434 324.209 28.5038 324.206 28.4641C324.198 28.3775 324.19 28.2912 324.181 28.2052C324.177 28.1645 324.173 28.1239 324.169 28.0834C324.158 27.9878 324.147 27.8925 324.134 27.7976C324.131 27.771 324.128 27.7441 324.124 27.7176C324.109 27.6066 324.093 27.4961 324.076 27.3862L324.072 27.3631C324.056 27.2595 324.038 27.1567 324.019 27.0542C324.013 27.0213 324.008 26.9879 324.002 26.9551C323.977 26.82 323.95 26.6858 323.921 26.5525C323.914 26.519 323.905 26.486 323.898 26.4526C323.876 26.3532 323.853 26.254 323.829 26.1557C323.817 26.1066 323.804 26.0582 323.791 26.0093C323.77 25.9274 323.749 25.8455 323.727 25.7644L323.717 25.727C323.701 25.6687 323.683 25.6112 323.666 25.5532C323.652 25.5055 323.639 25.4575 323.624 25.4101C323.601 25.3328 323.576 25.2563 323.551 25.1797C323.538 25.1389 323.525 25.0977 323.512 25.057C323.478 24.9552 323.443 24.8542 323.407 24.7539C323.401 24.7392 323.396 24.7242 323.391 24.7095C323.351 24.5979 323.309 24.4871 323.265 24.3771L323.261 24.3668C323.252 24.3443 323.243 24.3222 323.234 24.2997C323.199 24.2133 323.164 24.1274 323.128 24.0419C323.112 24.0042 323.095 23.9668 323.079 23.9292C323.049 23.8595 323.018 23.7901 322.987 23.721C322.968 23.6802 322.949 23.6396 322.93 23.5991C322.899 23.5331 322.868 23.4674 322.836 23.402C322.816 23.362 322.797 23.3221 322.777 23.2824C322.766 23.2605 322.755 23.2382 322.744 23.2163C322.735 23.1972 322.724 23.1788 322.714 23.1597C322.636 23.008 322.556 22.8578 322.473 22.7101L322.46 22.6875C322.374 22.535 322.284 22.3853 322.191 22.2371C322.181 22.2198 322.171 22.2017 322.16 22.1845C322.151 22.1695 322.14 22.1552 322.131 22.1403C322.042 21.9994 321.95 21.8605 321.856 21.7234C321.843 21.7046 321.829 21.6863 321.816 21.6676C321.73 21.5439 321.641 21.4219 321.551 21.3018C321.538 21.2842 321.525 21.2659 321.512 21.2484C321.504 21.2377 321.495 21.2275 321.487 21.2168C321.388 21.0873 321.286 20.9599 321.183 20.8345C321.162 20.81 321.141 20.7861 321.121 20.7618C321.028 20.6518 320.934 20.5435 320.838 20.4368C320.824 20.421 320.81 20.4044 320.796 20.3886L320.771 20.3625C320.679 20.262 320.586 20.1628 320.491 20.065L318.25 17.7714C318.345 17.8689 318.438 17.9681 318.53 18.069C318.553 18.0935 318.575 18.1186 318.597 18.1432C318.693 18.2499 318.787 18.3582 318.88 18.4682C318.9 18.4925 318.921 18.5165 318.941 18.541C319.045 18.6662 319.147 18.7936 319.246 18.9231C319.267 18.9513 319.288 18.9799 319.31 19.0083C319.4 19.1286 319.489 19.2506 319.575 19.3743C319.588 19.3929 319.602 19.4111 319.614 19.4297C319.709 19.5666 319.801 19.7057 319.89 19.8469C319.91 19.8789 319.93 19.9112 319.95 19.9434C320.042 20.0916 320.133 20.2413 320.219 20.3939L320.232 20.4167C320.315 20.5644 320.395 20.7145 320.473 20.8661C320.494 20.907 320.515 20.9476 320.536 20.9888C320.556 21.0285 320.575 21.0684 320.595 21.1084C320.627 21.1738 320.658 21.2395 320.689 21.3056C320.708 21.3461 320.727 21.3866 320.745 21.4273C320.777 21.4964 320.808 21.5659 320.838 21.6358C320.854 21.6733 320.871 21.7106 320.887 21.7483C320.923 21.8333 320.958 21.9189 320.992 22.005C321.001 22.0279 321.011 22.0505 321.02 22.0734C321.065 22.1867 321.108 22.3009 321.15 22.4159C321.155 22.4306 321.16 22.4456 321.165 22.4603C321.201 22.5607 321.237 22.6618 321.271 22.7634C321.284 22.8041 321.297 22.8453 321.31 22.8862C321.335 22.9627 321.36 23.0393 321.383 23.1165C321.398 23.164 321.411 23.212 321.425 23.2597C321.446 23.3299 321.466 23.4 321.486 23.4708C321.508 23.552 321.529 23.6339 321.55 23.7158C321.563 23.7646 321.576 23.8131 321.588 23.8621C321.612 23.9605 321.634 24.0597 321.657 24.159C321.664 24.1924 321.672 24.2254 321.68 24.2589C321.708 24.3922 321.735 24.5264 321.761 24.6616C321.767 24.6944 321.772 24.7277 321.778 24.7606C321.796 24.8632 321.815 24.9659 321.831 25.0695C321.85 25.187 321.867 25.3052 321.883 25.424C321.887 25.4506 321.89 25.4774 321.893 25.5041C321.905 25.599 321.917 25.6942 321.927 25.7899C321.932 25.8304 321.936 25.871 321.94 25.9116C321.949 25.9976 321.957 26.0839 321.965 26.1706C321.968 26.2102 321.972 26.2498 321.975 26.2896C321.983 26.3964 321.99 26.5036 321.996 26.6113C321.997 26.6287 321.999 26.6458 322 26.6632C322.007 26.788 322.012 26.9133 322.016 27.0394C322.017 27.0754 322.017 27.1116 322.018 27.1477C322.021 27.2397 322.022 27.3321 322.023 27.4247C322.023 27.4675 322.024 27.5104 322.024 27.5533C322.024 27.6358 322.023 27.7187 322.022 27.8017C322.021 27.8576 322.02 27.9135 322.019 27.9696C322.017 28.0519 322.014 28.1346 322.011 28.2173C322.009 28.2708 322.007 28.3242 322.005 28.3779C322 28.4696 321.995 28.5617 321.989 28.6539C321.986 28.6989 321.984 28.7437 321.981 28.7889C321.971 28.9266 321.959 29.0649 321.947 29.2037C321.93 29.3751 321.911 29.5461 321.89 29.7169C321.884 29.7693 321.877 29.8216 321.87 29.8739C321.854 29.9954 321.837 30.1167 321.818 30.2378C321.81 30.2944 321.801 30.351 321.792 30.4075C321.771 30.537 321.749 30.6663 321.726 30.7954C321.718 30.8367 321.711 30.8781 321.703 30.9194C321.672 31.088 321.638 31.2562 321.602 31.424C321.593 31.4621 321.584 31.5001 321.576 31.5382C321.547 31.6693 321.516 31.8002 321.484 31.9308C321.471 31.9861 321.457 32.0413 321.443 32.0965C321.413 32.2151 321.382 32.3334 321.35 32.4514C321.336 32.5033 321.322 32.5553 321.307 32.6071C321.264 32.7624 321.218 32.9172 321.171 33.0717L321.162 33.1043C321.111 33.2694 321.058 33.4339 321.003 33.5978C320.988 33.6413 320.973 33.6846 320.958 33.7281C320.908 33.8732 320.857 34.0179 320.804 34.1621C320.788 34.2066 320.772 34.2511 320.755 34.2954C320.689 34.472 320.621 34.6479 320.55 34.8231C320.538 34.8528 320.526 34.8824 320.514 34.912C320.453 35.0617 320.39 35.2109 320.325 35.3594C320.305 35.4067 320.284 35.4539 320.263 35.5011C320.186 35.6757 320.107 35.8497 320.026 36.0226C319.996 36.0852 319.968 36.1479 319.94 36.2108C319.931 36.2313 319.923 36.2518 319.914 36.2723C319.896 36.3148 319.878 36.3573 319.861 36.3999C319.851 36.4248 319.842 36.4498 319.832 36.4747C319.817 36.513 319.802 36.5513 319.788 36.5897C319.778 36.6168 319.769 36.6441 319.759 36.6713C319.748 36.7028 319.736 36.7344 319.726 36.766L319.722 36.7777C319.696 36.8537 319.672 36.9298 319.65 37.0059C319.644 37.0243 319.639 37.0427 319.634 37.0611C319.617 37.1199 319.601 37.1787 319.586 37.2375C319.58 37.2624 319.573 37.2873 319.567 37.3122C319.554 37.3684 319.541 37.4247 319.528 37.4809C319.524 37.5024 319.519 37.5239 319.514 37.5455C319.499 37.6218 319.484 37.698 319.471 37.7742L319.466 37.8071C319.455 37.8727 319.445 37.9383 319.437 38.0038C319.434 38.0279 319.431 38.0519 319.428 38.0759C319.421 38.1307 319.415 38.1854 319.41 38.24C319.408 38.2635 319.406 38.2871 319.404 38.3106C319.398 38.3803 319.394 38.4498 319.39 38.5192L319.389 38.5375C319.386 38.6128 319.384 38.6879 319.383 38.7627L319.383 38.7839C319.383 38.7937 319.384 38.8033 319.384 38.8131C319.384 38.9131 319.386 39.0128 319.391 39.1117L319.628 43.6884C319.63 43.7305 319.631 43.7726 319.631 43.8147L319.63 43.8221C319.63 43.8732 319.627 43.9241 319.622 43.975L319.618 44.018C319.614 44.0643 319.607 44.1106 319.6 44.1566L319.597 44.1778C319.587 44.23 319.576 44.2819 319.563 44.3335C319.56 44.3468 319.556 44.36 319.553 44.3732C319.542 44.4155 319.529 44.4575 319.516 44.4993L319.505 44.5327C319.489 44.5814 319.471 44.6297 319.451 44.6776L319.438 44.7081C319.422 44.7468 319.405 44.785 319.387 44.823L319.369 44.8593C319.338 44.9219 319.304 44.9835 319.269 45.0441L319.25 45.0752C319.218 45.1276 319.185 45.1794 319.15 45.23L319.141 45.2424C319.111 45.2847 319.08 45.3262 319.048 45.367L319.02 45.402C318.99 45.4391 318.959 45.4756 318.927 45.5114L318.915 45.5255C318.881 45.564 318.845 45.6016 318.808 45.6385C318.798 45.6489 318.787 45.659 318.777 45.6692C318.75 45.696 318.722 45.7222 318.694 45.748C318.682 45.7587 318.67 45.7694 318.658 45.7799C318.624 45.81 318.589 45.8393 318.554 45.8679L318.539 45.8802C318.499 45.9128 318.457 45.9441 318.414 45.9745C318.403 45.9827 318.392 45.9904 318.38 45.9984C318.345 46.0228 318.31 46.0464 318.274 46.0693L318.239 46.0911C318.191 46.1208 318.142 46.149 318.093 46.1758L318.067 46.1891C318.012 46.2182 317.956 46.2456 317.899 46.2708L317.885 46.2776C317.854 46.2909 317.823 46.3031 317.793 46.3153L317.764 46.3271C317.723 46.3425 317.682 46.3568 317.641 46.3701C317.619 46.3774 317.596 46.3837 317.574 46.3903C317.556 46.3954 317.539 46.401 317.521 46.4057C317.498 46.4121 317.474 46.4174 317.45 46.4231C317.434 46.427 317.417 46.4315 317.4 46.4351C317.372 46.4413 317.343 46.4462 317.315 46.4513C317.302 46.4534 317.29 46.4561 317.278 46.4581C317.237 46.4646 317.197 46.4701 317.155 46.4744C317.024 46.4884 316.892 46.4902 316.761 46.4798L313.44 46.2145C313.073 46.1857 312.703 46.1909 312.336 46.2301C312.223 46.242 312.109 46.2571 311.994 46.2754C311.956 46.2816 311.917 46.2903 311.878 46.2973C311.802 46.3107 311.727 46.3235 311.651 46.3396C311.605 46.3495 311.559 46.3621 311.513 46.373C311.445 46.3892 311.376 46.4043 311.308 46.4227C311.259 46.4359 311.211 46.4518 311.162 46.4661C311.096 46.4852 311.031 46.5033 310.966 46.5245L310.959 46.5264C310.898 46.5464 310.837 46.5694 310.776 46.5912C310.727 46.6089 310.677 46.625 310.628 46.6439C310.563 46.6688 310.498 46.6968 310.433 46.7237C310.386 46.7432 310.339 46.761 310.292 46.7816L310.289 46.783C310.189 46.8271 310.089 46.8743 309.99 46.9233C309.96 46.938 309.931 46.9537 309.901 46.9689C309.858 46.9909 309.814 47.012 309.772 47.035C309.725 47.06 309.678 47.0855 309.632 47.1116C309.479 47.1978 309.325 47.2821 309.17 47.3646C309.133 47.3841 309.096 47.4029 309.06 47.4223C308.947 47.4818 308.834 47.5404 308.72 47.5982C308.667 47.625 308.614 47.6513 308.561 47.6777C308.461 47.7274 308.361 47.7764 308.26 47.8247C308.205 47.8513 308.15 47.8776 308.094 47.9037C307.99 47.9527 307.886 48.0007 307.781 48.0478C307.731 48.0703 307.682 48.0932 307.632 48.1153C307.548 48.1524 307.464 48.188 307.38 48.224C307.294 48.2609 307.208 48.2981 307.122 48.3339C307.039 48.368 306.956 48.4008 306.873 48.434C306.787 48.4686 306.701 48.5036 306.614 48.5371C306.531 48.5691 306.447 48.5997 306.364 48.6308C306.277 48.6633 306.189 48.6961 306.102 48.7275C306.018 48.7574 305.934 48.7858 305.85 48.8147C305.762 48.8449 305.674 48.8754 305.586 48.9045C305.496 48.9341 305.406 48.9623 305.315 48.9907C305.236 49.0156 305.157 49.041 305.078 49.065C304.986 49.0926 304.894 49.1187 304.802 49.145C304.723 49.1677 304.644 49.191 304.564 49.2127C304.471 49.2383 304.377 49.2621 304.284 49.2863C304.205 49.3066 304.127 49.3276 304.049 49.3469C303.953 49.3704 303.857 49.3921 303.761 49.4142C303.684 49.4319 303.607 49.4505 303.53 49.4673C303.431 49.4889 303.331 49.5085 303.232 49.5285C303.158 49.5436 303.083 49.5596 303.009 49.5738C302.904 49.5937 302.799 49.6113 302.694 49.6295C302.625 49.6415 302.555 49.6548 302.485 49.6661C302.369 49.6849 302.252 49.7013 302.136 49.718C302.077 49.7264 302.018 49.736 301.96 49.7439C301.784 49.7673 301.608 49.7883 301.432 49.8069C301.228 49.8284 301.024 49.8465 300.819 49.8612C296.142 50.1962 292.161 48.6692 289.456 45.9008L291.697 48.1944C294.403 50.9628 298.384 52.4898 303.06 52.1547C303.265 52.1401 303.469 52.122 303.673 52.1005C303.85 52.082 304.025 52.061 304.201 52.0374C304.26 52.0295 304.319 52.0199 304.378 52.0114C304.494 51.9947 304.61 51.9784 304.726 51.9596C304.796 51.9483 304.866 51.9351 304.936 51.923C305.041 51.9048 305.145 51.8872 305.25 51.8673C305.325 51.8532 305.399 51.8371 305.473 51.8221C305.573 51.802 305.672 51.7825 305.771 51.7609C305.848 51.744 305.925 51.7254 306.002 51.7077C306.098 51.6856 306.194 51.664 306.29 51.6404C306.368 51.6211 306.446 51.6001 306.525 51.5799C306.618 51.5557 306.712 51.5318 306.806 51.5063C306.885 51.4846 306.964 51.4613 307.043 51.4387C307.135 51.4123 307.227 51.3862 307.319 51.3585C307.398 51.3346 307.477 51.3092 307.556 51.2843C307.627 51.262 307.698 51.2409 307.769 51.2178C307.789 51.2115 307.808 51.2044 307.827 51.198C307.915 51.169 308.003 51.1385 308.091 51.1083C308.175 51.0794 308.259 51.051 308.343 51.021C308.43 50.9897 308.518 50.9569 308.605 50.9244C308.688 50.8934 308.772 50.8628 308.855 50.8307C308.942 50.7971 309.028 50.7621 309.115 50.7274C309.198 50.6943 309.28 50.6617 309.363 50.6276C309.449 50.5917 309.535 50.5543 309.621 50.5174C309.687 50.4892 309.753 50.4622 309.819 50.4334C309.837 50.4254 309.855 50.4169 309.873 50.4089C309.923 50.3867 309.972 50.3638 310.022 50.3413C310.127 50.2941 310.231 50.2462 310.335 50.1975C310.391 50.1713 310.446 50.1449 310.502 50.1181C310.602 50.07 310.702 50.021 310.802 49.9713C310.855 49.9449 310.908 49.9186 310.961 49.8918C311.075 49.8344 311.187 49.7759 311.3 49.7164C311.337 49.6968 311.374 49.6778 311.411 49.658L311.436 49.6449C311.583 49.5666 311.728 49.4867 311.873 49.4053C311.962 49.3551 312.052 49.3085 312.142 49.2624C312.172 49.2472 312.201 49.2316 312.231 49.2169C312.331 49.1673 312.432 49.1197 312.533 49.0752C312.58 49.0546 312.627 49.0367 312.674 49.0173C312.739 48.9903 312.804 48.9623 312.869 48.9374C312.918 48.9186 312.968 48.9025 313.018 48.8848C313.081 48.8623 313.144 48.8387 313.207 48.8181C313.272 48.7969 313.338 48.7788 313.403 48.7597C313.452 48.7453 313.501 48.7294 313.549 48.7163C313.618 48.6979 313.686 48.6827 313.754 48.6666C313.8 48.6557 313.847 48.6431 313.893 48.6332C313.968 48.617 314.043 48.6043 314.119 48.5908C314.158 48.5839 314.197 48.5752 314.236 48.569C314.35 48.5508 314.464 48.5356 314.578 48.5237C314.944 48.4845 315.314 48.4793 315.681 48.5081L319.002 48.7734C319.133 48.7838 319.265 48.782 319.397 48.768C319.438 48.7637 319.479 48.7582 319.52 48.7516C319.532 48.7497 319.544 48.7469 319.556 48.7448C319.585 48.7397 319.613 48.7348 319.642 48.7287C319.658 48.7251 319.675 48.7205 319.692 48.7164C319.716 48.7108 319.739 48.7056 319.763 48.6993C319.78 48.6947 319.796 48.6892 319.813 48.6843C319.836 48.6777 319.858 48.6716 319.881 48.6644L319.883 48.6637C319.924 48.6504 319.964 48.6361 320.005 48.6207L320.034 48.6087C320.065 48.5967 320.095 48.5845 320.126 48.5713L320.13 48.5693L320.141 48.5643C320.197 48.5391 320.253 48.5118 320.308 48.4828L320.325 48.4746L320.334 48.4693C320.384 48.4427 320.432 48.4145 320.48 48.3847L320.492 48.3778L320.515 48.3629C320.551 48.34 320.586 48.3164 320.621 48.292L320.643 48.2772L320.656 48.268C320.698 48.2377 320.74 48.2064 320.78 48.1738L320.783 48.1718L320.796 48.1612C320.831 48.1328 320.865 48.1035 320.899 48.0735L320.915 48.0606L320.935 48.0416C320.963 48.0159 320.991 47.9896 321.018 47.9628C321.025 47.9559 321.032 47.9495 321.039 47.9426L321.049 47.932C321.086 47.8951 321.122 47.8576 321.156 47.819L321.159 47.8164L321.169 47.8049C321.2 47.7692 321.231 47.7327 321.261 47.6956L321.275 47.6789L321.289 47.6605C321.321 47.6197 321.352 47.5783 321.382 47.536L321.389 47.526L321.391 47.5235C321.426 47.473 321.459 47.4213 321.491 47.3689L321.503 47.3511L321.51 47.3375C321.546 47.277 321.579 47.2155 321.61 47.1529L321.618 47.1387L321.628 47.1166C321.646 47.0786 321.663 47.0404 321.679 47.0017L321.692 46.9711C321.712 46.9233 321.73 46.875 321.746 46.8263L321.75 46.8159L321.757 46.7928C321.77 46.7511 321.783 46.7091 321.794 46.6668L321.804 46.627C321.817 46.5754 321.829 46.5235 321.838 46.4713L321.841 46.4502C321.849 46.4041 321.855 46.3579 321.86 46.3115L321.864 46.2686C321.868 46.2177 321.871 46.1667 321.871 46.1156L321.872 46.1096L321.872 46.1082C321.872 46.0661 321.871 46.024 321.869 45.9819L321.632 41.4052C321.627 41.3064 321.625 41.2068 321.625 41.1069C321.625 41.09 321.625 41.0731 321.625 41.0561C321.625 40.9813 321.627 40.9064 321.63 40.8312L321.631 40.8119C321.635 40.7428 321.639 40.6736 321.645 40.6042C321.647 40.5806 321.649 40.557 321.652 40.5333C321.657 40.4788 321.663 40.4243 321.669 40.3697C321.672 40.3456 321.675 40.3215 321.678 40.2973C321.687 40.2318 321.696 40.1662 321.707 40.1005L321.712 40.0677C321.725 39.9916 321.74 39.9154 321.755 39.8392C321.76 39.8174 321.765 39.7957 321.77 39.774C321.782 39.7179 321.795 39.6619 321.808 39.6059C321.815 39.5809 321.821 39.5559 321.827 39.531C321.842 39.4721 321.858 39.4133 321.875 39.3545C321.881 39.3361 321.886 39.3178 321.891 39.2995C321.914 39.2234 321.938 39.1474 321.963 39.0714C321.975 39.0357 321.988 39 322 38.9644C322.01 38.9373 322.019 38.9102 322.029 38.8832C322.043 38.8451 322.058 38.8071 322.073 38.7691C322.083 38.7438 322.092 38.7185 322.102 38.6933C322.119 38.6517 322.137 38.6102 322.154 38.5687C322.164 38.5472 322.172 38.5256 322.182 38.5042C322.209 38.4414 322.237 38.3787 322.267 38.3162C322.349 38.1433 322.427 37.9693 322.504 37.7947C322.525 37.7475 322.546 37.7003 322.566 37.653C322.631 37.5045 322.694 37.3555 322.755 37.2059C322.767 37.1761 322.78 37.1465 322.792 37.1166C322.862 36.9415 322.931 36.7657 322.996 36.589C323.013 36.5447 323.029 36.5001 323.045 36.4557C323.098 36.3115 323.149 36.1669 323.199 36.0218C323.209 35.9935 323.219 35.9655 323.229 35.9371C323.234 35.9219 323.239 35.9065 323.244 35.8913C323.299 35.7273 323.352 35.563 323.403 35.3979L323.413 35.3648C323.46 35.2106 323.505 35.0559 323.549 34.9008C323.563 34.8489 323.577 34.7969 323.591 34.7449C323.623 34.6269 323.654 34.5087 323.684 34.3903C323.698 34.335 323.712 34.2797 323.726 34.2243C323.758 34.0938 323.788 33.963 323.817 33.832C323.825 33.7938 323.834 33.7558 323.843 33.7175C323.879 33.5498 323.913 33.3816 323.945 33.213C323.952 33.1717 323.959 33.1302 323.967 33.0888C323.99 32.9598 324.012 32.8306 324.033 32.7012C324.042 32.6446 324.051 32.5879 324.06 32.5313C324.078 32.4102 324.095 32.2889 324.111 32.1675C324.118 32.1152 324.125 32.0629 324.131 32.0104C324.152 31.8396 324.172 31.6687 324.188 31.4973C324.201 31.3584 324.212 31.2201 324.222 31.0825C324.225 31.0373 324.227 30.9925 324.23 30.9474C324.236 30.8553 324.241 30.7631 324.246 30.6715Z" fill="#3249B3"/>
<path d="M306.246 13.8552C296.267 14.9146 287.099 23.8692 285.82 33.8368C284.588 43.4315 291.246 50.547 300.818 49.8612C301.023 49.8465 301.228 49.8284 301.432 49.807C304.32 49.4757 307.11 48.5586 309.632 47.1117C310.464 46.637 311.384 46.337 312.336 46.2301C312.703 46.191 313.072 46.1857 313.44 46.2145L316.76 46.4799C316.892 46.4902 317.024 46.4884 317.155 46.4745C317.831 46.3801 318.452 46.0477 318.905 45.5371C319.358 45.0265 319.614 44.371 319.628 43.6884L319.39 39.1117C319.344 38.0454 319.563 36.9843 320.025 36.0227C321.056 33.8783 321.706 31.5709 321.946 29.2037C322.844 19.6533 315.882 12.8423 306.246 13.8552Z" fill="url(#paint10_linear_1925_722)"/>
<path d="M300.949 21.1176C301.104 21.0977 301.261 21.1317 301.393 21.2139L307.297 25.374C307.845 25.7263 308.253 26.2587 308.451 26.8794C308.649 27.5001 308.625 28.1704 308.382 28.775C308.138 29.5094 307.718 30.1732 307.159 30.7087L303.986 33.7952C303.797 33.9771 303.675 34.2175 303.64 34.4773C303.605 34.7371 303.659 35.0011 303.793 35.2264L308.084 41.845C308.158 42.0048 308.177 42.1847 308.139 42.3566C308.1 42.5285 308.006 42.683 307.871 42.7962C307.722 42.9456 307.528 43.0411 307.318 43.0678C307.171 43.0869 307.023 43.0524 306.899 42.9706L299.802 37.7492C299.287 37.3758 298.91 36.8415 298.732 36.2305C298.554 35.6196 298.585 34.9668 298.819 34.3752C299.063 33.6408 299.483 32.9771 300.041 32.4416L303.215 29.3551C303.389 29.1645 303.501 28.9254 303.535 28.6696C303.57 28.4138 303.525 28.1536 303.407 27.9239L300.093 22.4354C300.022 22.2611 300.007 22.0687 300.052 21.8856C300.096 21.7025 300.198 21.5383 300.341 21.4164C300.505 21.2522 300.719 21.147 300.949 21.1176Z" fill="#F2FBFE"/>
<path d="M224.394 193.143C223.823 190.565 220.506 184.469 221.095 181.78C222.59 173.075 219.072 164.632 211.229 160.309C217.855 164.553 220.617 173.025 219.26 180.576C218.692 183.031 221.84 189.351 222.519 191.671C222.58 191.862 222.562 192.068 222.471 192.247C222.38 192.425 222.223 192.56 222.033 192.623C220.484 192.833 214.535 193.31 213.194 193.97C211.827 194.499 210.817 195.584 209.679 196.463C203.282 201.761 192.813 202.947 186.269 198.313C192.324 203.232 201.711 203.823 208.797 199.493C210.862 198.434 212.428 196.673 214.388 195.481C216.071 194.364 221.904 194.184 223.868 193.827C224.013 193.778 224.141 193.686 224.234 193.565C224.328 193.443 224.384 193.296 224.394 193.143Z" fill="url(#paint11_linear_1925_722)"/>
<path d="M195.153 158.292C195.2 158.278 195.245 158.264 195.292 158.249C206.101 154.991 216.537 160.938 219.037 171.782C219.665 174.559 219.756 177.429 219.305 180.24C219.098 181.475 219.212 182.742 219.634 183.921L222.52 191.671C222.581 191.861 222.564 192.069 222.473 192.247C222.381 192.425 222.223 192.561 222.033 192.623L215.194 193.435C214.76 193.486 214.331 193.577 213.913 193.706C212.838 194.043 211.848 194.606 211.009 195.359C208.511 197.611 205.556 199.298 202.347 200.307C202.108 200.381 201.868 200.45 201.625 200.516C190.559 203.52 180.243 197.009 178.247 185.766C176.18 174.124 183.774 161.803 195.153 158.292Z" fill="#F9FEFA"/>
<path d="M196.253 198.499C192.624 198.538 189.101 197.271 186.326 194.931C183.454 192.45 181.551 189.033 180.953 185.285C180.111 180.125 181.195 174.835 183.998 170.421C186.703 165.908 190.955 162.531 195.963 160.919L196.086 160.881C197.745 160.375 199.469 160.114 201.204 160.108C204.695 160.076 208.091 161.24 210.827 163.407C213.643 165.685 215.595 168.858 216.358 172.4C216.908 174.835 216.986 177.353 216.588 179.818C216.31 181.518 216.472 183.261 217.058 184.881L219.042 190.21L214.87 190.705C214.271 190.776 213.679 190.902 213.102 191.08C211.651 191.534 210.314 192.294 209.18 193.307C206.978 195.299 204.37 196.791 201.537 197.68C201.328 197.745 201.115 197.806 200.905 197.863C199.389 198.28 197.825 198.493 196.253 198.499Z" fill="url(#paint12_linear_1925_722)"/>
<path d="M206.586 175.332C206.586 175.298 206.586 175.264 206.586 175.229C206.586 175.177 206.586 175.125 206.585 175.072C206.585 175.039 206.584 175.006 206.584 174.973C206.584 174.917 206.584 174.862 206.583 174.807L206.583 174.805C206.565 172.777 206.478 170.212 206.478 170.212C206.461 170.025 206.4 169.844 206.302 169.683C206.204 169.522 206.07 169.386 205.911 169.284L205.446 169.033L203.362 167.91L202.793 167.603C202.719 167.565 202.639 167.543 202.556 167.538C202.473 167.533 202.391 167.545 202.313 167.574C202.142 167.635 201.997 167.753 201.903 167.909L200.124 173.158C200.072 173.24 200.038 173.332 200.024 173.428C200.009 173.524 200.015 173.622 200.041 173.716C200.075 173.837 200.152 173.941 200.258 174.01C200.269 174.019 200.281 174.028 200.293 174.036C200.586 174.093 200.871 174.181 201.145 174.3L201.146 174.297C201.432 174.427 201.691 174.61 201.736 174.855C202.161 177.156 198.717 182.794 196.391 183.61L196.389 183.611C196.231 183.636 196.069 183.627 195.915 183.582C195.761 183.538 195.619 183.46 195.499 183.355L195.5 183.353C195.291 183.206 195.097 183.04 194.92 182.856C194.847 182.819 194.766 182.796 194.684 182.791C194.601 182.786 194.518 182.799 194.441 182.827C194.269 182.888 194.124 183.007 194.03 183.163L190.46 186.9L190.116 187.26C190.092 187.3 190.071 187.341 190.054 187.385C189.993 187.517 189.983 187.667 190.025 187.806C190.068 187.945 190.16 188.063 190.285 188.138L192.937 189.568L193.405 189.813C193.72 189.954 194.077 189.972 194.405 189.861C194.45 189.846 194.495 189.828 194.538 189.807C194.538 189.807 200.825 186.54 201.023 186.213C202.39 183.962 205.135 179.467 206.504 177.217C206.511 177.203 206.517 177.188 206.52 177.173L206.524 177.154C206.528 177.137 206.531 177.119 206.534 177.098C206.535 177.09 206.537 177.081 206.538 177.071C206.542 177.044 206.545 177.013 206.548 176.979L206.55 176.965C206.553 176.926 206.557 176.882 206.559 176.835L206.562 176.787C206.564 176.753 206.566 176.717 206.568 176.679C206.568 176.659 206.569 176.639 206.57 176.619C206.572 176.577 206.573 176.534 206.574 176.489C206.575 176.471 206.575 176.455 206.576 176.437C206.578 176.377 206.579 176.314 206.58 176.249C206.58 176.221 206.581 176.191 206.582 176.162C206.582 176.12 206.583 176.077 206.583 176.033C206.584 176 206.584 175.966 206.584 175.932C206.585 175.889 206.585 175.846 206.586 175.802C206.586 175.766 206.586 175.731 206.586 175.695C206.586 175.624 206.586 175.552 206.587 175.478C206.586 175.43 206.586 175.381 206.586 175.332Z" fill="white"/>
<path d="M321.818 127.52L335.969 129.839L350.751 124.015L336.599 121.696L321.818 127.52Z" fill="#FADDE1"/>
<path d="M321.818 127.52L332.774 100.994L336.599 121.696L321.818 127.52Z" fill="#FBE4E7"/>
<path d="M332.774 100.994L350.751 124.015L336.6 121.696L332.774 100.994Z" fill="#FDF1F3"/>
<path d="M21.875 32.0122L28.1626 40.951L38.7095 39.7263L32.4219 30.7874L21.875 32.0122Z" fill="#FF97B7"/>
<path d="M36.6806 20.6245L42.9688 29.5633L38.7094 39.7263L32.4219 30.7874L36.6806 20.6245Z" fill="#FFB6CD"/>
<path d="M32.422 30.7874L36.6807 20.6245L26.1338 21.8492L21.875 32.0122L32.422 30.7874Z" fill="#FFD5E2"/>
<path d="M142.817 204.498C141.88 205.49 140.757 206.288 139.512 206.846C138.267 207.404 136.924 207.712 135.56 207.75C134.196 207.788 132.838 207.558 131.563 207.071C130.288 206.584 129.122 205.85 128.131 204.912C127.14 203.974 126.344 202.85 125.788 201.604C125.232 200.358 124.927 199.015 124.89 197.651C124.854 196.287 125.087 194.929 125.576 193.655C126.065 192.381 126.8 191.216 127.739 190.226L142.817 204.498Z" fill="url(#paint13_linear_1925_722)"/>
<path d="M142.83 204.484C143.861 203.395 141.322 199.317 137.158 195.376C132.995 191.435 128.784 189.123 127.752 190.213C126.721 191.302 129.26 195.38 133.424 199.321C137.587 203.262 141.798 205.574 142.83 204.484Z" fill="#FDE2E4"/>
<path d="M133.504 199.237C129.394 195.347 126.868 191.324 127.794 190.172C127.78 190.185 127.766 190.199 127.752 190.213C126.721 191.302 129.26 195.38 133.423 199.321C137.587 203.262 141.798 205.574 142.829 204.484C142.843 204.47 142.855 204.455 142.867 204.44C141.768 205.428 137.613 203.126 133.504 199.237Z" fill="#FEF3F4"/>
<path d="M195.801 22.5192C195.514 22.6542 195.197 22.7092 194.882 22.6784L187.641 22.0865L182.602 26.3859L189.843 26.9777C190.158 27.0086 190.475 26.9536 190.761 26.8186C190.877 26.7622 190.985 26.6914 191.083 26.6078L196.122 22.3084C196.025 22.392 195.916 22.4628 195.801 22.5192Z" fill="#BF7200"/>
<path d="M173.907 1.97541C173.857 1.68562 173.881 1.38783 173.977 1.10998C174.074 0.832136 174.239 0.583354 174.458 0.386993L169.419 4.68639C169.2 4.88275 169.034 5.13153 168.938 5.40937C168.842 5.68722 168.817 5.98501 168.868 6.27479L169.806 13.7589L174.845 9.45952L173.907 1.97541Z" fill="#BF7200"/>
<path d="M183.506 28.5158C182.522 28.9957 181.063 28.4119 180.523 27.0795L177.569 19.7938L170.414 17.1024C168.81 16.4991 168.216 14.4033 169.328 13.4548L164.288 17.7542C163.176 18.7027 163.77 20.7985 165.374 21.4018L172.529 24.0931L175.483 31.3789C176.024 32.7112 177.482 33.2951 178.466 32.8151C178.582 32.7591 178.689 32.6887 178.786 32.6056L183.826 28.3063C183.728 28.3893 183.621 28.4597 183.506 28.5158Z" fill="#BF7200"/>
<path d="M196.147 19.459L191.145 13.172L192.665 6.24983C193.019 4.64998 191.331 2.98466 189.812 3.43272L183.236 5.36708L176.937 0.497752C176.647 0.246649 176.292 0.082395 175.914 0.0238736C175.535 -0.0346479 175.147 0.0149386 174.795 0.166932C174.472 0.33215 174.21 0.597581 174.05 0.923553C173.89 1.24953 173.84 1.61853 173.907 1.97543L174.845 9.45953L169.433 13.3721C168.181 14.2756 168.762 16.481 170.414 17.1025L177.569 19.7938L180.523 27.0795C181.063 28.4119 182.522 28.9957 183.506 28.5158C183.779 28.3818 184.006 28.1704 184.16 27.908L187.642 22.0866L194.882 22.6784C195.197 22.7092 195.515 22.6542 195.801 22.5192C196.785 22.039 197.061 20.6088 196.147 19.459Z" fill="url(#paint14_linear_1925_722)"/>
<path d="M195.801 22.1091C195.514 22.2441 195.197 22.2991 194.882 22.2683L187.641 21.6764L184.16 27.4978C184.006 27.7603 183.779 27.9717 183.506 28.1057C182.522 28.5856 181.063 28.0017 180.523 26.6694L177.568 19.3837L170.414 16.6923C169.969 16.5215 169.581 16.2312 169.291 15.8535C169.001 15.4757 168.821 15.0252 168.77 14.5517C168.735 15.0968 168.876 15.6387 169.172 16.0979C169.467 16.557 169.903 16.9092 170.414 17.1024L177.568 19.7937L180.523 27.0795C181.063 28.4119 182.522 28.9957 183.506 28.5158C183.779 28.3818 184.006 28.1704 184.16 27.9079L187.641 22.0865L194.882 22.6784C195.197 22.7092 195.514 22.6542 195.801 22.5192C196.113 22.3529 196.366 22.0941 196.526 21.7782C196.686 21.4623 196.744 21.1048 196.692 20.7546C196.673 21.0381 196.581 21.3117 196.424 21.5491C196.268 21.7864 196.053 21.9793 195.801 22.1091Z" fill="#FF9800"/>
<path d="M174.795 0.576993C175.147 0.424999 175.535 0.375413 175.914 0.433934C176.292 0.492456 176.647 0.65671 176.937 0.907813L183.236 5.77715L189.812 3.8428C191.125 3.45545 192.561 4.64801 192.699 6.01185C192.848 4.49019 191.255 3.00685 189.812 3.43272L183.236 5.36708L176.937 0.497752C176.647 0.246649 176.292 0.082395 175.914 0.0238736C175.535 -0.0346479 175.147 0.0149386 174.795 0.166932C174.481 0.327057 174.226 0.582208 174.066 0.895953C173.906 1.2097 173.849 1.56599 173.904 1.91397C173.922 1.63263 174.014 1.36111 174.171 1.12651C174.327 0.891904 174.542 0.702428 174.795 0.576993Z" fill="#FEDC9E"/>
<path style="mix-blend-mode:multiply" opacity="0.29" d="M63.151 229.321C98.0284 229.321 126.302 224.288 126.302 218.081C126.302 211.873 98.0284 206.841 63.151 206.841C28.2735 206.841 -0.000244141 211.873 -0.000244141 218.081C-0.000244141 224.288 28.2735 229.321 63.151 229.321Z" fill="url(#paint15_radial_1925_722)"/>
<path d="M80.3434 191.537C80.3434 189.572 72.6393 187.978 63.1358 187.978C53.6323 187.978 45.9282 189.572 45.9282 191.537V196.863C45.9282 202.305 46.7575 207.715 48.3875 212.907C48.9026 214.747 50.0054 216.368 51.5277 217.523C53.05 218.678 54.9083 219.303 56.819 219.303H69.4832C71.3939 219.303 73.2522 218.678 74.7745 217.523C76.2968 216.368 77.3997 214.747 77.9147 212.907V212.907C79.5447 207.715 80.374 202.305 80.374 196.863V191.537H80.3434Z" fill="url(#paint16_linear_1925_722)"/>
<path d="M63.1511 195.752C72.6631 195.752 80.374 193.895 80.374 191.605C80.374 189.315 72.6631 187.459 63.1511 187.459C53.6392 187.459 45.9282 189.315 45.9282 191.605C45.9282 193.895 53.6392 195.752 63.1511 195.752Z" fill="#6981F1"/>
<path d="M63.1359 195.096C71.8497 195.096 78.9136 193.635 78.9136 191.833C78.9136 190.031 71.8497 188.57 63.1359 188.57C54.4221 188.57 47.3582 190.031 47.3582 191.833C47.3582 193.635 54.4221 195.096 63.1359 195.096Z" fill="url(#paint17_linear_1925_722)"/>
<path d="M65.7477 151.163C66.6997 151.423 67.5626 151.939 68.243 152.654C68.9235 153.369 69.3957 154.256 69.6087 155.22C70.0039 157.166 69.7122 159.189 68.7834 160.945C68.1656 162.208 67.3182 163.394 67.065 164.777C66.8118 166.161 67.4241 167.857 68.7904 168.189C71.482 168.842 72.6116 164.154 75.3492 163.733C77.0745 163.468 78.589 165.189 78.7736 166.924C78.9582 168.66 78.208 170.344 77.4753 171.928C74.9265 177.439 71.8175 182.756 69.816 188.489C68.9008 191.11 67.2928 194.91 67.2928 194.91C64.1948 195.162 61.0822 195.179 57.9816 194.963C57.9816 194.963 54.7445 189.461 52.9643 186.636C50.8283 183.247 48.5817 179.931 46.5937 176.433C44.869 173.398 42.0686 169.747 42.7993 166.045C43.0688 164.679 44.2122 163.039 45.8055 163.44C46.4207 163.634 46.9824 163.969 47.4463 164.417C48.7629 165.553 49.9072 166.907 51.3813 167.829C52.8555 168.751 54.8245 169.169 56.3162 168.275C58.16 167.171 58.4857 164.682 58.614 162.537C58.7773 159.806 58.3788 156.506 59.8351 154.105C61.0101 152.167 63.4233 150.646 65.7477 151.163Z" fill="#FF97B7"/>
<path d="M65.4274 151.483C66.3794 151.744 67.2423 152.259 67.9227 152.974C68.6032 153.689 69.0754 154.577 69.2884 155.541C69.6836 157.487 69.3919 159.51 68.4631 161.265C67.8452 162.528 66.9979 163.715 66.7446 165.098C66.4914 166.481 67.1038 168.178 68.4701 168.509C69.5303 168.767 70.3479 168.194 71.1171 167.381C70.8354 167.71 70.4716 167.957 70.0629 168.099C69.6541 168.241 69.2151 168.272 68.7905 168.189C67.4242 167.857 66.8118 166.161 67.065 164.778C67.3182 163.394 68.1656 162.208 68.7835 160.945C69.7123 159.189 70.0039 157.166 69.6087 155.22C69.3958 154.256 68.9236 153.369 68.2431 152.654C67.5627 151.939 66.6998 151.423 65.7477 151.163C63.8732 150.746 61.9412 151.655 60.6472 153.039C61.2599 152.414 62.0144 151.946 62.8466 151.675C63.6789 151.404 64.5642 151.339 65.4274 151.483Z" fill="#FCE4ED"/>
<path d="M78.7736 166.924C78.589 165.189 77.0746 163.468 75.3493 163.733C74.4819 163.929 73.7052 164.41 73.1433 165.1C73.649 164.565 74.3076 164.2 75.0289 164.054C76.7542 163.788 78.2687 165.509 78.4533 167.245C78.6379 168.981 77.8877 170.664 77.1551 172.248C74.6063 177.76 71.4973 183.077 69.4957 188.809C68.7346 190.989 67.4952 193.982 67.0991 194.929C67.1659 194.923 67.2308 194.917 67.2929 194.91C67.2929 194.91 68.9009 191.11 69.8161 188.489C71.8176 182.756 74.9266 177.439 77.4754 171.928C78.2081 170.344 78.9583 168.66 78.7736 166.924Z" fill="#FCE4ED"/>
<path d="M45.4849 163.76C46.1002 163.955 46.6619 164.289 47.1258 164.738C48.4424 165.874 49.5867 167.227 51.0608 168.15C52.5349 169.072 54.504 169.489 55.9957 168.596C56.3118 168.405 56.5958 168.166 56.8374 167.887C56.6762 168.032 56.5016 168.162 56.3161 168.275C54.8244 169.169 52.8553 168.751 51.3812 167.829C49.9071 166.907 48.7627 165.553 47.4461 164.417C46.9823 163.969 46.4206 163.634 45.8053 163.44C45.4125 163.35 45.0021 163.377 44.624 163.516C44.2458 163.655 43.9162 163.901 43.675 164.223C43.9146 164.002 44.2054 163.844 44.5214 163.763C44.8374 163.682 45.1685 163.681 45.4849 163.76Z" fill="#FCE4ED"/>
<path d="M65.1368 151.944C64.6982 153.293 64.3419 154.673 63.9933 156.048C63.6477 157.411 63.3418 158.784 63.0639 160.163C62.5069 162.927 62.0662 165.71 61.7417 168.513C61.4143 171.335 61.2038 174.166 61.1101 177.008C61.0171 179.834 61.0406 182.66 61.1808 185.486C61.3232 188.309 61.5777 191.123 61.9445 193.93C61.989 194.27 62.0351 194.611 62.0828 194.952C62.121 195.224 62.5375 195.109 62.498 194.837C62.0927 192.044 61.8094 189.238 61.648 186.418C61.4887 183.623 61.4418 180.824 61.5073 178.023C61.5744 175.21 61.7563 172.403 62.0531 169.602C62.349 166.81 62.7577 164.033 63.2793 161.271C63.8003 158.508 64.422 155.758 65.1478 153.041C65.2387 152.701 65.3293 152.362 65.4152 152.021C65.4239 151.984 65.4181 151.946 65.399 151.914C65.38 151.881 65.3492 151.858 65.3131 151.848C65.277 151.838 65.2384 151.842 65.2056 151.86C65.1727 151.878 65.148 151.908 65.1368 151.944L65.1368 151.944Z" fill="#FF5D8F"/>
<path d="M45.0483 164.581C45.1547 165.122 45.2975 165.656 45.4757 166.178C45.6369 166.694 45.8241 167.202 46.0144 167.708C46.3979 168.727 46.8115 169.735 47.2552 170.731C48.1563 172.726 49.1666 174.671 50.2814 176.555C51.3961 178.461 52.5805 180.326 53.7928 182.171C55.0888 184.144 56.3818 186.119 57.6717 188.096C59.0101 190.139 60.3484 192.183 61.6868 194.226C61.8526 194.479 62.0185 194.732 62.1844 194.986C62.3322 195.211 62.6966 195.001 62.5477 194.773L58.5362 188.641C57.2322 186.648 55.9138 184.665 54.6223 182.663C53.4358 180.824 52.2537 178.981 51.1328 177.101C50.0115 175.221 48.9523 173.299 48.0045 171.325C47.5368 170.351 47.0907 169.364 46.7061 168.354C46.3182 167.335 45.9717 166.3 45.6554 165.257C45.576 164.996 45.4946 164.741 45.3975 164.485C45.3834 164.44 45.3524 164.403 45.3112 164.38C45.27 164.358 45.2217 164.352 45.1765 164.365C45.1313 164.377 45.0927 164.407 45.0688 164.447C45.0448 164.487 45.0375 164.536 45.0483 164.581H45.0483Z" fill="#FF5D8F"/>
<path d="M76.3234 165.763C76.1853 166.745 75.9541 167.712 75.633 168.65C75.2973 169.593 74.8857 170.507 74.4024 171.384C73.3989 173.149 72.2759 174.843 71.0412 176.455C69.7735 178.177 68.513 179.901 67.3771 181.714C66.182 183.621 65.101 185.598 64.1398 187.633C63.6587 188.652 63.2082 189.685 62.7883 190.732C62.3087 191.793 62.0271 192.932 61.9575 194.094C61.955 194.376 61.9746 194.656 62.0162 194.935C62.0326 194.992 62.0712 195.042 62.1236 195.071C62.1759 195.101 62.2379 195.109 62.2961 195.093C62.3535 195.076 62.402 195.037 62.4316 194.985C62.4612 194.933 62.4696 194.872 62.455 194.814C62.3544 193.667 62.5388 192.514 62.9918 191.456C63.3812 190.394 63.8387 189.355 64.3106 188.327C65.2464 186.29 66.3015 184.31 67.4705 182.398C68.5868 180.572 69.8329 178.842 71.088 177.111C72.3122 175.488 73.441 173.795 74.4686 172.041C75.4689 170.336 76.1649 168.47 76.5254 166.526C76.5649 166.286 76.5953 166.045 76.6165 165.803C76.631 165.637 76.348 165.596 76.3234 165.763L76.3234 165.763Z" fill="#FF5D8F"/>
<circle cx="280.635" cy="158.19" r="25.6524" fill="url(#paint18_linear_1925_722)"/>
<path d="M285.604 148.057C285.424 148.052 285.249 147.994 285.101 147.891C284.953 147.789 284.839 147.645 284.771 147.478C284.704 147.311 284.686 147.128 284.721 146.951C284.756 146.774 284.842 146.612 284.967 146.483C286.009 145.416 287.431 144.807 288.922 144.789C290.413 144.771 291.85 145.346 292.916 146.388C293.092 146.56 293.193 146.794 293.196 147.04C293.199 147.286 293.104 147.523 292.932 147.699C292.76 147.875 292.526 147.975 292.28 147.978C292.034 147.981 291.797 147.886 291.621 147.714C290.906 147.017 289.943 146.631 288.944 146.643C287.945 146.655 286.992 147.063 286.294 147.778C286.205 147.87 286.097 147.942 285.978 147.99C285.859 148.038 285.732 148.061 285.604 148.057Z" fill="#231F20"/>
<path d="M269.295 147.584C269.115 147.579 268.94 147.521 268.792 147.418C268.644 147.315 268.53 147.172 268.462 147.005C268.395 146.838 268.377 146.655 268.412 146.478C268.447 146.301 268.533 146.138 268.659 146.01C269.7 144.943 271.123 144.334 272.613 144.316C274.104 144.298 275.541 144.873 276.607 145.915C276.783 146.086 276.884 146.321 276.887 146.567C276.89 146.813 276.795 147.049 276.623 147.225C276.451 147.401 276.217 147.502 275.971 147.505C275.725 147.508 275.488 147.413 275.312 147.241C274.597 146.543 273.635 146.158 272.636 146.17C271.637 146.182 270.683 146.59 269.985 147.305C269.896 147.397 269.788 147.469 269.669 147.517C269.55 147.565 269.423 147.588 269.295 147.584Z" fill="#231F20"/>
<path d="M299.051 157.665C301.204 157.107 302.498 154.91 301.94 152.756C301.382 150.603 299.184 149.31 297.031 149.868C294.877 150.426 293.584 152.623 294.142 154.777C294.7 156.93 296.898 158.223 299.051 157.665Z" fill="#F9696A"/>
<path d="M266.334 155.738C267.974 154.236 268.085 151.688 266.583 150.048C265.08 148.408 262.532 148.296 260.892 149.799C259.252 151.301 259.14 153.849 260.643 155.489C262.146 157.129 264.693 157.241 266.334 155.738Z" fill="#F9696A"/>
<path d="M280.942 177.759C271.292 177.759 264.669 169.918 263.612 162.627C263.586 162.573 263.558 162.519 263.533 162.465C264.182 169.937 270.996 178.266 280.942 178.266C291.311 178.266 297.736 170.163 297.736 162.465H297.719C297.363 170.047 291.085 177.759 280.942 177.759Z" fill="#FEC55E"/>
<path fill-rule="evenodd" clip-rule="evenodd" d="M263.533 162.465C263.533 170.966 271.19 177.857 280.635 177.857C290.079 177.857 297.736 170.966 297.736 162.465H263.533Z" fill="url(#paint19_linear_1925_722)"/>
<path d="M263.533 162.465H297.736V163.006C297.736 163.77 297.431 164.503 296.887 165.044C296.344 165.585 295.607 165.888 294.838 165.888H266.431C265.662 165.888 264.925 165.585 264.382 165.044C263.838 164.503 263.533 163.77 263.533 163.006V162.465Z" fill="white"/>
<defs>
<radialGradient id="paint0_radial_1925_722" cx="0" cy="0" r="1" gradientUnits="userSpaceOnUse" gradientTransform="translate(78.0345 97.6851) scale(45.3384 42.7156)">
<stop offset="0.40069"/>
<stop offset="0.44623" stop-color="#2F2F2F"/>
<stop offset="0.50031" stop-color="#5F5F5F"/>
<stop offset="0.55749" stop-color="#8A8A8A"/>
<stop offset="0.61672" stop-color="#AEAEAE"/>
<stop offset="0.67861" stop-color="#CCCCCC"/>
<stop offset="0.74402" stop-color="#E2E2E2"/>
<stop offset="0.81447" stop-color="#F2F2F2"/>
<stop offset="0.89371" stop-color="#FCFCFC"/>
<stop offset="1" stop-color="white"/>
</radialGradient>
<linearGradient id="paint1_linear_1925_722" x1="11.2655" y1="151.59" x2="57.0596" y2="129.188" gradientUnits="userSpaceOnUse">
<stop stop-color="#914AFE"/>
<stop offset="0.42514" stop-color="#7D32FE"/>
<stop offset="1" stop-color="#5E0BFE"/>
</linearGradient>
<linearGradient id="paint2_linear_1925_722" x1="25.9339" y1="132.488" x2="114.247" y2="50.1242" gradientUnits="userSpaceOnUse">
<stop stop-color="#914AFE"/>
<stop offset="0.42514" stop-color="#7D32FE"/>
<stop offset="1" stop-color="#5E0BFE"/>
</linearGradient>
<linearGradient id="paint3_linear_1925_722" x1="128.88" y1="67.8307" x2="102.853" y2="143.935" gradientUnits="userSpaceOnUse">
<stop stop-color="#914AFE"/>
<stop offset="0.42514" stop-color="#7D32FE"/>
<stop offset="1" stop-color="#5E0BFE"/>
</linearGradient>
<linearGradient id="paint4_linear_1925_722" x1="98.8621" y1="90.4098" x2="102.624" y2="74.5471" gradientUnits="userSpaceOnUse">
<stop stop-color="#914AFE"/>
<stop offset="0.42514" stop-color="#7D32FE"/>
<stop offset="1" stop-color="#5E0BFE"/>
</linearGradient>
<linearGradient id="paint5_linear_1925_722" x1="67.95" y1="94.884" x2="71.7123" y2="79.0212" gradientUnits="userSpaceOnUse">
<stop stop-color="#914AFE"/>
<stop offset="0.42514" stop-color="#7D32FE"/>
<stop offset="1" stop-color="#5E0BFE"/>
</linearGradient>
<linearGradient id="paint6_linear_1925_722" x1="30.6531" y1="99.7438" x2="42.0742" y2="83.0514" gradientUnits="userSpaceOnUse">
<stop stop-color="#914AFE"/>
<stop offset="0.42514" stop-color="#7D32FE"/>
<stop offset="1" stop-color="#5E0BFE"/>
</linearGradient>
<linearGradient id="paint7_linear_1925_722" x1="279.089" y1="38.0919" x2="342.129" y2="38.0919" gradientUnits="userSpaceOnUse">
<stop stop-color="#81D4FA"/>
<stop offset="1" stop-color="#CDEEFD"/>
</linearGradient>
<linearGradient id="paint8_linear_1925_722" x1="290.147" y1="53.4751" x2="317.169" y2="17.8691" gradientUnits="userSpaceOnUse">
<stop offset="0.00342" stop-color="#4361EE"/>
<stop offset="0.41729" stop-color="#506CEF"/>
<stop offset="1" stop-color="#6981F1"/>
</linearGradient>
<linearGradient id="paint9_linear_1925_722" x1="299.393" y1="34.7709" x2="309.231" y2="34.7709" gradientUnits="userSpaceOnUse">
<stop stop-color="#81D4FA"/>
<stop offset="1" stop-color="#CDEEFD"/>
</linearGradient>
<linearGradient id="paint10_linear_1925_722" x1="290.147" y1="53.4751" x2="317.169" y2="17.8691" gradientUnits="userSpaceOnUse">
<stop offset="0.00342" stop-color="#4361EE"/>
<stop offset="0.41729" stop-color="#506CEF"/>
<stop offset="1" stop-color="#6981F1"/>
</linearGradient>
<linearGradient id="paint11_linear_1925_722" x1="198.904" y1="208.387" x2="219.397" y2="168.243" gradientUnits="userSpaceOnUse">
<stop stop-color="#57CC99"/>
<stop offset="0.20484" stop-color="#6FD4A7"/>
<stop offset="0.63527" stop-color="#ADE8CA"/>
<stop offset="1" stop-color="#E6FBEB"/>
</linearGradient>
<linearGradient id="paint12_linear_1925_722" x1="185.92" y1="201.295" x2="211.818" y2="166.344" gradientUnits="userSpaceOnUse">
<stop stop-color="#57CC99"/>
<stop offset="0.62216" stop-color="#6FDF99"/>
<stop offset="1" stop-color="#80ED99"/>
</linearGradient>
<linearGradient id="paint13_linear_1925_722" x1="126.192" y1="199.373" x2="136.877" y2="198.618" gradientUnits="userSpaceOnUse">
<stop stop-color="#FFB8DE"/>
<stop offset="0.20377" stop-color="#FEC3E0"/>
<stop offset="0.68981" stop-color="#FDDAE3"/>
<stop offset="1" stop-color="#FDE2E4"/>
</linearGradient>
<linearGradient id="paint14_linear_1925_722" x1="181.864" y1="33.2518" x2="183.539" y2="3.51619" gradientUnits="userSpaceOnUse">
<stop stop-color="#FF9800"/>
<stop offset="1" stop-color="#FECA71"/>
</linearGradient>
<radialGradient id="paint15_radial_1925_722" cx="0" cy="0" r="1" gradientUnits="userSpaceOnUse" gradientTransform="translate(63.151 217.952) scale(60.8026 9.9985)">
<stop/>
<stop offset="0.16597" stop-color="#424242"/>
<stop offset="0.33175" stop-color="#7B7B7B"/>
<stop offset="0.49022" stop-color="#AAAAAA"/>
<stop offset="0.63999" stop-color="#CFCFCF"/>
<stop offset="0.77895" stop-color="#E9E9E9"/>
<stop offset="0.90305" stop-color="#F9F9F9"/>
<stop offset="1" stop-color="white"/>
</radialGradient>
<linearGradient id="paint16_linear_1925_722" x1="45.9282" y1="203.641" x2="80.374" y2="203.641" gradientUnits="userSpaceOnUse">
<stop stop-color="#4361EE"/>
<stop offset="0.3187" stop-color="#5974F0"/>
<stop offset="0.61326" stop-color="#6981F1"/>
<stop offset="0.73567" stop-color="#657DF1"/>
<stop offset="0.86798" stop-color="#5872F0"/>
<stop offset="1" stop-color="#4361EE"/>
</linearGradient>
<linearGradient id="paint17_linear_1925_722" x1="63.0218" y1="197.535" x2="63.1987" y2="188.691" gradientUnits="userSpaceOnUse">
<stop stop-color="#3A0CA3"/>
<stop offset="0.18626" stop-color="#3B14AA"/>
<stop offset="0.47362" stop-color="#3D2ABD"/>
<stop offset="0.82439" stop-color="#414DDC"/>
<stop offset="1" stop-color="#4361EE"/>
</linearGradient>
<linearGradient id="paint18_linear_1925_722" x1="300.729" y1="135.103" x2="260.968" y2="172.299" gradientUnits="userSpaceOnUse">
<stop stop-color="#FBD990"/>
<stop offset="0.36064" stop-color="#FBD990"/>
<stop offset="0.550079" stop-color="#FCCD76"/>
<stop offset="0.772484" stop-color="#FDB23C"/>
<stop offset="1" stop-color="#FE9A06"/>
</linearGradient>
<linearGradient id="paint19_linear_1925_722" x1="280.635" y1="162.465" x2="280.635" y2="177.857" gradientUnits="userSpaceOnUse">
<stop stop-color="#2B3140"/>
<stop offset="1" stop-color="#B77126"/>
</linearGradient>
</defs>
</svg>
