<svg xmlns="http://www.w3.org/2000/svg" aria-hidden="true" style="display:none">
  <symbol id="pgw-icon-search" viewBox="0 0 24 24"><circle cx="11" cy="11" r="7" fill="none" stroke="currentColor" stroke-width="2"/><path d="m16 16 5 5" fill="none" stroke="currentColor" stroke-width="2" stroke-linecap="round"/></symbol>
  <symbol id="pgw-icon-users" viewBox="0 0 24 24"><path d="M16 21v-2a4 4 0 0 0-4-4H6a4 4 0 0 0-4 4v2M9 11a4 4 0 1 0 0-8 4 4 0 0 0 0 8m13 10v-2a4 4 0 0 0-3-3.87m-2-12a4 4 0 0 1 0 7.75" fill="none" stroke="currentColor" stroke-width="2" stroke-linecap="round" stroke-linejoin="round"/></symbol>
  <symbol id="pgw-icon-alert" viewBox="0 0 24 24"><path d="M10.3 3.6 1.8 18a2 2 0 0 0 1.7 3h17a2 2 0 0 0 1.7-3L13.7 3.6a2 2 0 0 0-3.4 0ZM12 9v4m0 4h.01" fill="none" stroke="currentColor" stroke-width="2" stroke-linecap="round" stroke-linejoin="round"/></symbol>
  <symbol id="pgw-icon-external" viewBox="0 0 24 24"><path d="M14 3h7v7m0-7L10 14M21 14v5a2 2 0 0 1-2 2H5a2 2 0 0 1-2-2V5a2 2 0 0 1 2-2h5" fill="none" stroke="currentColor" stroke-width="2" stroke-linecap="round" stroke-linejoin="round"/></symbol>
</svg>
